<?xml version="1.0" standalone="no"?>
<!DOCTYPE svg PUBLIC "-//W3C//DTD SVG 1.1//EN" "http://www.w3.org/Graphics/SVG/1.1/DTD/svg11.dtd" >
<svg xmlns="http://www.w3.org/2000/svg">
<metadata></metadata>
<defs>
<font id="simplerbold" horiz-adv-x="0" >
<font-face units-per-em="2048" ascent="1638" descent="-410" />
<missing-glyph horiz-adv-x="458" />
<glyph unicode="&#xfb01;" horiz-adv-x="1353" d="M84 850v221h125v186q0 153 93.5 245.5t252.5 92.5q98 0 190 -28v-215q-73 24 -135 24q-63 0 -99 -35.5t-36 -99.5v-170h733v-1071h-268v850h-465v-850h-266v850h-125zM936 1245v232h276v-232h-276z" />
<glyph unicode="&#xfb02;" horiz-adv-x="1363" d="M84 850v221h125v186q0 153 93.5 245.5t252.5 92.5q98 0 190 -28v-215q-73 24 -135 24q-63 0 -99 -35.5t-36 -99.5v-170h459v498h274v-1569h-274v850h-459v-850h-266v850h-125z" />
<glyph />
<glyph horiz-adv-x="682" />
<glyph unicode=" "  horiz-adv-x="458" />
<glyph unicode="&#x09;" horiz-adv-x="458" />
<glyph unicode="&#xa0;" horiz-adv-x="458" />
<glyph unicode="!" horiz-adv-x="712" d="M195 133q0 66 47.5 113t113.5 47t114 -47t48 -113t-48 -114t-114 -48t-113.5 48t-47.5 114zM207 1087v371h287v-373l-62 -602h-164z" />
<glyph unicode="&#x22;" horiz-adv-x="1118" d="M113 983l174 475h295l-308 -475h-161zM537 983l174 475h295l-308 -475h-161z" />
<glyph unicode="#" horiz-adv-x="1642" d="M205 406v165h297v312h-297v164h297v296h168v-296h303v296h170v-296h295v-164h-295v-312h295v-165h-295v-295h-170v295h-303v-295h-168v295h-297zM670 571h303v312h-303v-312z" />
<glyph unicode="$" horiz-adv-x="1212" d="M143 1069q0 173 125 291.5t330 118.5l41 -2l25 172h149l-29 -195q115 -27 222 -96v-250q-129 86 -254 119l-58 -398q42 -14 74.5 -26.5t73.5 -33.5t71 -43t60.5 -54.5t50.5 -69.5t32.5 -87t12.5 -107q1 -120 -56.5 -218t-168.5 -156.5t-256 -58.5h-17l-22 -161h-150 l25 178q-139 25 -258 98v250q139 -88 293 -119l57 402q-44 15 -75 27.5t-73 34t-71 44t-60 57t-50 74t-31.5 93t-12.5 116.5zM420 1069q0 -62 31.5 -105t101.5 -79l53 360q-85 -4 -135.5 -54t-50.5 -122zM606 213q85 12 136 66t49 129q-1 61 -31.5 96t-102.5 67z" />
<glyph unicode="%" horiz-adv-x="1589" d="M160 1217q0 113 79 191.5t191 78.5t191 -78.5t79 -191.5q0 -111 -79 -191t-191 -80t-191 80t-79 191zM211 0l1001 1458h160l-995 -1458h-166zM299 1217q0 -56 38 -95t93 -39q56 0 93.5 38.5t37.5 95.5t-38 96t-93 39t-93 -39t-38 -96zM889 242q0 112 78.5 191t191.5 79 t192 -79t79 -191q0 -111 -79.5 -191t-191.5 -80t-191 80t-79 191zM1028 242q0 -56 38 -94.5t93 -38.5q56 0 93.5 38t37.5 95t-38 96t-93 39t-93 -39t-38 -96z" />
<glyph unicode="&#x26;" horiz-adv-x="1667" d="M180 401q0 132 62 228.5t182 171.5q-75 99 -105 173.5t-30 149.5q0 158 121 261.5t307 103.5q180 0 291.5 -93t111.5 -239q0 -113 -64 -200.5t-198 -163.5l-59 -35l293 -320l383 314v-301l-222 -183l244 -268h-307l-117 123q-173 -154 -399 -154q-93 0 -180.5 28 t-158 80.5t-113 136.5t-42.5 187zM432 416q0 -103 74.5 -163t173.5 -60q130 0 238 100l-332 346q-73 -43 -113.5 -95t-40.5 -128zM537 1128q0 -53 26.5 -103t91.5 -114q123 68 175.5 118.5t52.5 109.5q0 61 -48 103t-124 42q-74 0 -124 -45.5t-50 -110.5z" />
<glyph unicode="'" horiz-adv-x="694" d="M113 983l174 475h295l-308 -475h-161z" />
<glyph unicode="(" horiz-adv-x="794" d="M121 643q0 263 125 516.5t329 407.5h170q-193 -215 -274.5 -441t-81.5 -483t81.5 -482.5t274.5 -443.5h-170q-207 157 -330.5 409.5t-123.5 516.5z" />
<glyph unicode=")" horiz-adv-x="790" d="M45 -283q193 218 274.5 443.5t81.5 482.5t-81.5 483t-274.5 441h170q206 -154 330.5 -407t124.5 -517t-124 -516.5t-331 -409.5h-170z" />
<glyph unicode="*" horiz-adv-x="1175" d="M154 1053l65 209l283 -113l-23 309h215l-20 -313l280 115l68 -207l-291 -76l191 -242l-172 -129l-160 268l-166 -270l-172 129l194 244z" />
<glyph unicode="+" horiz-adv-x="1634" d="M205 616v218h504v503h217v-503h504v-218h-504v-505l-217 2v503h-504z" />
<glyph unicode="," horiz-adv-x="696" d="M102 -186l156 454h313l-292 -454h-177z" />
<glyph unicode="-" horiz-adv-x="1071" d="M164 528v213h743v-213h-743z" />
<glyph unicode="." horiz-adv-x="663" d="M164 133q0 66 48 113t114 47t113.5 -47t47.5 -113t-47.5 -114t-113.5 -48t-114 48t-48 114z" />
<glyph unicode="/" horiz-adv-x="1173" d="M61 0l836 1567h215l-836 -1567h-215z" />
<glyph unicode="0" horiz-adv-x="1269" d="M111 729q0 377 136.5 568.5t387.5 191.5t387.5 -191.5t136.5 -568.5t-136.5 -567.5t-387.5 -190.5t-387.5 190.5t-136.5 567.5zM389 729q0 -272 55 -393t191 -121t191 121t55 393q0 274 -54.5 394t-191.5 120t-191.5 -120t-54.5 -394z" />
<glyph unicode="1" horiz-adv-x="858" d="M102 1034v193q117 4 201 66t113 165h219v-1458h-281v1034h-252z" />
<glyph unicode="2" horiz-adv-x="1140" d="M102 1016q-2 210 125 341.5t344 131.5q209 0 338 -121t129 -319q0 -36 -6.5 -70t-14 -60t-28.5 -62.5t-33 -56.5t-46.5 -63t-50.5 -62t-62 -73l-310 -364h517v-238h-869v197l535 637q63 75 84.5 117.5t21.5 97.5q0 87 -54 143.5t-149 56.5q-111 0 -165 -65t-54 -168h-252 z" />
<glyph unicode="3" horiz-adv-x="1064" d="M102 4v248q108 -41 230 -41q164 0 262 74t98 219q0 98 -65 157.5t-152 59.5q-98 0 -186 -68v248l268 322h-440v235h768l-4 -192l-275 -326q157 -24 260 -141t103 -295q0 -128 -47.5 -231t-132 -169.5t-198.5 -101.5t-249 -35q-127 0 -240 37z" />
<glyph unicode="4" horiz-adv-x="1232" d="M86 299v227l520 932h301l-516 -926h357v224l260 2v-226h139v-233h-139v-299l-260 -2v301h-662z" />
<glyph unicode="5" horiz-adv-x="1075" d="M92 12l17 242q105 -43 233 -43q164 0 262 74t98 219q0 98 -65 157.5t-152 59.5q-105 0 -172 -76l-174 72l51 741h689v-235h-455l-16 -295q64 18 137 18q181 0 307.5 -121.5t126.5 -320.5q0 -128 -47.5 -231t-132 -169.5t-198.5 -101.5t-249 -35q-148 0 -260 45z" />
<glyph unicode="6" horiz-adv-x="1202" d="M106 442q0 154 66 301q52 118 184 322l256 393h303l-411 -620q69 34 158 34q80 0 156 -27.5t139 -79.5t101 -137t38 -190q0 -202 -141 -336.5t-357 -134.5q-217 0 -354.5 134t-137.5 341zM377 428q0 -103 62.5 -170.5t164.5 -67.5q101 0 164 67.5t63 170.5t-63 169.5 t-164 66.5q-103 0 -165 -66.5t-62 -169.5z" />
<glyph unicode="7" horiz-adv-x="1105" d="M102 1214v244h922v-223q-130 -149 -213.5 -269t-140.5 -259q-115 -283 -115 -707h-293q0 464 148 793q98 216 274 421h-582z" />
<glyph unicode="8" horiz-adv-x="1224" d="M111 406q0 245 213 360q-84 56 -128 138.5t-44 178.5q0 181 126.5 292.5t329.5 111.5q207 0 336 -115.5t129 -290.5q0 -97 -44.5 -179.5t-127.5 -137.5q210 -118 213 -358q0 -197 -139.5 -318t-366.5 -121q-220 0 -358.5 122.5t-138.5 316.5zM387 416q0 -98 64 -164 t161 -66q98 0 162 66t64 164q0 99 -64 165t-162 66t-161.5 -66t-63.5 -165zM418 1071q0 -90 56 -150.5t140 -60.5t140.5 60.5t56.5 150.5q0 87 -55 142t-142 55q-86 0 -141 -55t-55 -142z" />
<glyph unicode="9" horiz-adv-x="1202" d="M106 1020q0 202 141 336.5t357 134.5q217 0 354.5 -134t137.5 -341q0 -154 -66 -301q-52 -118 -184 -322l-256 -393h-303l411 621q-72 -35 -157 -35q-64 0 -125.5 17t-118 52.5t-99 85.5t-67.5 122.5t-25 156.5zM371 1030q0 -102 62.5 -168.5t164.5 -66.5q103 0 165 66 t62 169t-62.5 170.5t-164.5 67.5q-101 0 -164 -67.5t-63 -170.5z" />
<glyph unicode=":" horiz-adv-x="653" d="M178 0v297h297v-297h-297zM178 774v297h297v-297h-297z" />
<glyph unicode=";" horiz-adv-x="710" d="M45 -166l143 455h326l-293 -455h-176zM207 774v297h297v-297h-297z" />
<glyph unicode="&#x3c;" horiz-adv-x="1163" d="M184 731l678 678l174 -174l-510 -506l508 -508l-172 -170z" />
<glyph unicode="=" horiz-adv-x="1519" d="M213 379v217h1094v-217h-1094zM213 854v217h1094v-217h-1094z" />
<glyph unicode="&#x3e;" horiz-adv-x="1163" d="M127 221l510 508l-510 506l174 174l678 -678l-678 -680z" />
<glyph unicode="?" horiz-adv-x="1058" d="M123 1085q-6 179 103.5 291.5t295.5 112.5q179 0 287.5 -98.5t108.5 -257.5q0 -95 -48.5 -175.5t-156.5 -193.5l-142 -150v-161h-229v243l244 256q49 53 71.5 95t22.5 86q0 65 -45.5 105t-112.5 40q-86 0 -129.5 -55.5t-40.5 -137.5h-229zM293 133q0 66 48 113t114 47 t113.5 -47t47.5 -113t-47.5 -114t-113.5 -48t-114 48t-48 114z" />
<glyph unicode="@" horiz-adv-x="1976" d="M168 618q0 167 65 319t174.5 261.5t261 174.5t318.5 65t319 -65t262 -174.5t175 -261.5t65 -319q0 -213 -104 -397h-215q137 170 137 397q0 176 -84.5 323t-231.5 231.5t-323 84.5t-322.5 -84.5t-230.5 -231.5t-84 -323q0 -132 49.5 -250.5t134.5 -203.5t203 -134.5 t250 -49.5q180 0 336 94v-203q-163 -72 -336 -72q-167 0 -318.5 65t-261 174.5t-174.5 261t-65 318.5zM627 442q0 88 58 148t171 80l184 35q45 8 65.5 26t20.5 57q0 49 -39 74t-98 25q-69 0 -108 -31.5t-39 -87.5h-185q5 119 95.5 190.5t240.5 71.5q155 0 242.5 -76 t87.5 -229v-504h-125l-55 92q-33 -53 -95.5 -82.5t-134.5 -29.5q-130 0 -208 68.5t-78 172.5zM811 446q0 -50 36 -79t93 -29q78 0 135.5 54t57.5 145v53q-89 -16 -195 -33q-127 -22 -127 -111z" />
<glyph unicode="A" horiz-adv-x="1449" d="M31 0l551 1458h286l551 -1458h-291l-131 348h-544l-134 -348h-288zM537 578h376l-188 516z" />
<glyph unicode="B" horiz-adv-x="1282" d="M154 0v1458h524q168 0 286.5 -119.5t118.5 -285.5q0 -176 -112 -273q101 -42 160 -129.5t59 -218.5q0 -180 -125.5 -306t-304.5 -126h-606zM424 225h281q88 0 149 61.5t61 149.5t-61.5 150.5t-148.5 62.5h-281v-424zM424 858h215q78 0 133 54.5t55 131.5q0 78 -55 133.5 t-133 55.5h-215v-375z" />
<glyph unicode="C" horiz-adv-x="1406" d="M92 731q0 173 63.5 317t172 239t250.5 147.5t301 52.5q226 0 411 -103v-256q-78 50 -182.5 83.5t-200.5 33.5q-86 0 -165 -21t-146 -63.5t-117 -103t-78 -144.5t-28 -182t28 -182t78 -144.5t117 -103t146 -63.5t165 -21q96 0 200.5 33.5t182.5 83.5v-256 q-185 -103 -411 -103q-159 0 -301 52.5t-250.5 147.5t-172 239t-63.5 317z" />
<glyph unicode="D" horiz-adv-x="1490" d="M154 0v1458h520q207 0 373 -91t262 -258.5t96 -381.5q0 -159 -56 -295.5t-154 -230.5t-232.5 -147.5t-288.5 -53.5h-520zM432 244h225q201 0 335 134t134 349q0 216 -134 351.5t-335 135.5h-225v-970z" />
<glyph unicode="E" horiz-adv-x="1085" d="M154 0v1458h809v-244h-537v-337h489v-240h-489v-393h537v-244h-809z" />
<glyph unicode="F" horiz-adv-x="1064" d="M154 0v1458h809v-244h-535v-337h487v-240h-487v-637h-274z" />
<glyph unicode="G" horiz-adv-x="1597" d="M92 731q0 177 65.5 323t177 239.5t256 144.5t306.5 51q274 0 502 -129v-264q-101 72 -229 112.5t-252 40.5q-152 0 -275.5 -61.5t-197.5 -180.5t-74 -276t74 -276t197.5 -180.5t275.5 -61.5q148 0 296 57v289h-253v223h514v-657q-100 -69 -256.5 -110.5t-321.5 -41.5 q-162 0 -306.5 51t-256 144.5t-177 239.5t-65.5 323z" />
<glyph unicode="H" horiz-adv-x="1581" d="M154 0v1458h276v-579h721v579h276v-1458h-276v635h-721v-635h-276z" />
<glyph unicode="I" horiz-adv-x="606" d="M164 0v1458h278v-1458h-278z" />
<glyph unicode="J" horiz-adv-x="765" d="M80 -6v221q70 -18 121 -18q66 0 103.5 37t37.5 104v1120h276v-1136q0 -159 -97.5 -256t-262.5 -97q-89 0 -178 25z" />
<glyph unicode="K" horiz-adv-x="1333" d="M154 0v1458h276v-655h4l549 655h340l-623 -731l623 -727h-340l-549 653h-4v-653h-276z" />
<glyph unicode="L" horiz-adv-x="1036" d="M154 0v1458h274v-1208h516v-250h-790z" />
<glyph unicode="M" horiz-adv-x="2134" d="M113 0l155 1458h357l442 -1075l442 1075h359l153 -1458h-276l-115 1075l-454 -1104h-215l-457 1106l-115 -1077h-276z" />
<glyph unicode="N" horiz-adv-x="1652" d="M154 0v1458h266l807 -1028v1028h272v-1458h-264l-807 1022v-1022h-274z" />
<glyph unicode="O" horiz-adv-x="1714" d="M92 729q0 143 42 266.5t115.5 213t171 153.5t209 95.5t228.5 31.5t228 -31.5t208 -95.5t170.5 -153.5t115.5 -213t42 -266.5t-42 -266.5t-115.5 -212.5t-170.5 -152.5t-208 -95t-228 -31.5t-228.5 31.5t-209 95t-171 152.5t-115.5 212.5t-42 266.5zM371 729 q0 -120 42.5 -218.5t112 -160.5t155.5 -95.5t177 -33.5q90 0 175.5 33.5t155 95.5t112 160.5t42.5 218.5q0 121 -42.5 220t-112 161t-155 95.5t-175.5 33.5q-91 0 -177 -33.5t-155.5 -95.5t-112 -161t-42.5 -220z" />
<glyph unicode="P" horiz-adv-x="1167" d="M154 0v1458h493q182 0 310 -128.5t128 -311.5q0 -182 -128.5 -310t-309.5 -128h-223v-580h-270zM424 809h176q88 0 149.5 61.5t61.5 149.5q0 86 -61.5 147.5t-149.5 61.5h-176v-420z" />
<glyph unicode="Q" horiz-adv-x="1738" d="M86 729q0 143 42 266.5t115.5 213t171 153.5t209 95.5t228.5 31.5t228 -31.5t208 -95.5t170.5 -153.5t115.5 -213t42 -266.5q0 -258 -137 -448l268 -281h-354l-103 98q-195 -127 -438 -127q-117 0 -228.5 31.5t-209 95t-171 152.5t-115.5 212.5t-42 266.5zM365 729 q0 -120 42.5 -218.5t112 -160.5t155.5 -95.5t177 -33.5q90 0 175.5 33.5t155 95.5t112 160.5t42.5 218.5q0 121 -42.5 220t-112 161t-155 95.5t-175.5 33.5q-91 0 -177 -33.5t-155.5 -95.5t-112 -161t-42.5 -220z" />
<glyph unicode="R" horiz-adv-x="1222" d="M154 0v1458h493q182 0 310 -128.5t128 -311.5q0 -151 -92.5 -267.5t-234.5 -152.5l444 -598h-313l-418 584h-47v-584h-270zM424 809h176q88 0 149.5 61.5t61.5 149.5q0 86 -61.5 147.5t-149.5 61.5h-176v-420z" />
<glyph unicode="S" horiz-adv-x="1114" d="M92 1069q0 173 125 291.5t330 118.5q224 0 407 -121v-250q-202 137 -387 137q-89 0 -143.5 -50.5t-54.5 -125.5q0 -83 56.5 -133t190.5 -96q48 -16 78 -27.5t77 -33t76.5 -42.5t65 -55t56 -71.5t35 -90t14.5 -116.5q0 -118 -56 -214q-58 -98 -169 -156.5t-256 -58.5 q-232 0 -422 115v250q94 -60 200 -94.5t201 -34.5q99 1 162 57q61 55 61 135v5q-1 42 -14 71t-48 53t-74.5 40.5t-113.5 41.5q-37 12 -60 20.5t-60 24t-61 29.5t-55.5 36t-52.5 45t-43.5 55t-35 67.5t-21 81t-8.5 96.5z" />
<glyph unicode="T" horiz-adv-x="1105" d="M61 1214v244h983v-244h-352v-1214h-278v1214h-353z" />
<glyph unicode="U" horiz-adv-x="1478" d="M143 565v893h275l2 -915q0 -138 92.5 -229t226.5 -91t227 91t93 229l2 915h274v-893q0 -171 -80 -308.5t-216 -212.5t-300 -75t-300 75t-216 212.5t-80 308.5z" />
<glyph unicode="V" horiz-adv-x="1490" d="M51 1458h289l405 -1093l404 1093h291l-551 -1458h-287z" />
<glyph unicode="W" horiz-adv-x="2369" d="M41 1458h301l334 -1091l387 1097h244l387 -1097l334 1091h301l-484 -1458h-293l-368 1047l-367 -1047h-293z" />
<glyph unicode="X" horiz-adv-x="1413" d="M16 0l525 774l-463 684h330l299 -452l294 452h330l-463 -684l525 -774h-332l-354 541l-361 -541h-330z" />
<glyph unicode="Y" horiz-adv-x="1327" d="M4 1458h315l345 -536l344 536h315l-522 -794v-664h-275v664z" />
<glyph unicode="Z" horiz-adv-x="1236" d="M106 0v197l672 1017h-672v244h1024v-196l-671 -1018h671v-244h-1024z" />
<glyph unicode="[" horiz-adv-x="712" d="M145 -283v1860h506v-193h-295v-1474h295v-193h-506z" />
<glyph unicode="\" horiz-adv-x="1105" d="M23 1567h215l845 -1585h-215z" />
<glyph unicode="]" horiz-adv-x="712" d="M61 -90h295v1474h-295v193h506v-1860h-506v193z" />
<glyph unicode="^" horiz-adv-x="1470" d="M180 604l430 854h250l430 -854h-258l-297 592l-295 -592h-260z" />
<glyph unicode="_" horiz-adv-x="1169" d="M49 0h1071v-190h-1071v190z" />
<glyph unicode="`" horiz-adv-x="1228" d="M229 1513h297l152 -294h-135z" />
<glyph unicode="a" horiz-adv-x="1122" d="M63 303q0 119 78 198t230 111l254 56q59 13 86.5 35t27.5 67q0 67 -52 100t-132 33q-91 0 -145 -42.5t-54 -115.5h-252q6 161 130 259t327 98q208 0 327.5 -103.5t119.5 -314.5v-684h-168l-74 127q-47 -71 -132 -112.5t-183 -41.5q-177 0 -282.5 94t-105.5 236zM315 309 q0 -67 48 -106t122 -39q105 0 182.5 71.5t77.5 192.5v76q-43 -8 -131 -23.5t-131 -23.5q-168 -28 -168 -148z" />
<glyph unicode="b" horiz-adv-x="1284" d="M150 0v1569h268v-604h4q48 63 130 99t169 36q113 0 206.5 -45.5t155 -122.5t95.5 -178.5t34 -214.5q0 -155 -57 -282.5t-171 -206.5t-265 -79q-98 0 -184.5 44.5t-128.5 121.5l-80 -137h-176zM414 537q0 -95 28 -170t89.5 -122.5t148.5 -47.5q125 0 193.5 97t68.5 243 q0 144 -68.5 240.5t-193.5 96.5q-129 0 -197.5 -96t-68.5 -241z" />
<glyph unicode="c" horiz-adv-x="1050" d="M74 537q0 165 73.5 294t202.5 199t291 70q166 0 309 -82v-240q-59 43 -133.5 69.5t-142.5 26.5q-153 0 -246 -96q-90 -93 -90 -243q0 -152 92 -244q91 -94 244 -94q68 0 142.5 26.5t133.5 69.5v-240q-143 -82 -309 -82q-247 0 -407 157.5t-160 408.5z" />
<glyph unicode="d" horiz-adv-x="1286" d="M74 539q0 113 34 214.5t95.5 178.5t155 122.5t206.5 45.5q87 0 169 -36t130 -99h4v604h269v-1569h-176l-80 137q-42 -77 -129 -121.5t-185 -44.5q-151 0 -265 79t-171 206.5t-57 282.5zM344 537q0 -146 68.5 -243t193.5 -97q87 0 148.5 47.5t89.5 122.5t28 170 q0 145 -68.5 241t-197.5 96q-125 0 -193.5 -96.5t-68.5 -240.5z" />
<glyph unicode="e" horiz-adv-x="1187" d="M72 535q0 131 40.5 238.5t111 178.5t165.5 109.5t205 38.5q233 0 377.5 -150.5t144.5 -414.5q0 -28 -4 -78h-786q15 -126 85.5 -201.5t182.5 -75.5q169 0 231 144h262q-52 -171 -182 -262t-311 -91q-228 0 -375 149t-147 415zM328 641h534q-20 115 -86.5 181.5 t-181.5 66.5q-107 0 -175 -67.5t-91 -180.5z" />
<glyph unicode="f" horiz-adv-x="794" d="M84 850v221h125v186q0 153 93.5 245.5t252.5 92.5q98 0 190 -28v-215q-73 24 -135 24q-63 0 -99 -35.5t-36 -99.5v-170h262v-221h-262v-850h-266v850h-125z" />
<glyph unicode="g" horiz-adv-x="1214" d="M72 686q0 128 66 222.5t173 141t238 46.5q45 0 159.5 -12.5t200.5 -12.5h258v-217h-178q37 -70 37 -168q0 -128 -66 -222.5t-173 -141t-238 -46.5q-88 0 -174 25q-37 -30 -37 -74q0 -19 7 -33t25 -24.5t32 -17t46.5 -12.5t49.5 -8.5t59 -8.5q56 -7 92.5 -13t86.5 -16 t83 -21.5t71 -28t62 -38.5t45 -49.5t31 -64t10 -80.5q0 -70 -23.5 -126.5t-65.5 -95.5t-102 -65.5t-132 -38.5t-156 -12q-240 0 -432 102v215q97 -57 212 -90t222 -33q223 0 223 117q0 27 -13 46t-40 31t-55 19t-70 13q-7 1 -57.5 8t-66.5 9.5t-58.5 9.5t-64 12t-50.5 14 t-49 18q-122 56 -127 193v8q0 53 26 104q28 55 81 92q-168 115 -168 324zM328 686q0 -96 62 -152.5t159 -56.5t159 56.5t62 152.5q0 97 -62 154t-159 57t-159 -57t-62 -154z" />
<glyph unicode="h" horiz-adv-x="1234" d="M150 0v1569h268v-615q50 74 132.5 111t172.5 37q183 0 290 -115t107 -309v-678h-270v604q0 266 -191 266q-57 0 -101.5 -20t-70.5 -52t-42.5 -75.5t-22.5 -85.5t-6 -88v-549h-266z" />
<glyph unicode="i" horiz-adv-x="563" d="M143 1245v232h277v-232h-277zM147 0v1071h271v-1071h-271z" />
<glyph unicode="j" horiz-adv-x="563" d="M-63 -291q45 -10 90 -10q63 0 99 35.5t36 99.5v1237h266v-1253q0 -153 -93.5 -245.5t-252.5 -92.5q-70 0 -145 16v213zM158 1245v232h270v-232h-270z" />
<glyph unicode="k" horiz-adv-x="1177" d="M154 0v1569h266v-998l416 500h321l-444 -530l461 -541h-336l-418 496v-496h-266z" />
<glyph unicode="l" horiz-adv-x="573" d="M154 0v1569h266v-1569h-266z" />
<glyph unicode="m" horiz-adv-x="1921" d="M141 0v1071h203l78 -137q119 168 315 168q235 0 340 -193q55 97 151 145t202 48q176 0 276 -113.5t100 -306.5v-682h-272v594q0 38 -4 72.5t-16.5 73t-33 66t-57 46t-84.5 18.5q-69 0 -117 -30.5t-71.5 -81.5t-33 -102t-9.5 -109v-547h-268v594q0 38 -4 72.5t-16.5 73 t-33 66t-57 46t-84.5 18.5q-69 0 -117 -30.5t-71.5 -81.5t-33 -102t-9.5 -109v-547h-273z" />
<glyph unicode="n" horiz-adv-x="1236" d="M143 0v1071h203l78 -139q51 83 130.5 125.5t170.5 42.5q104 0 181.5 -31.5t124 -90.5t69 -137.5t22.5 -176.5v-664h-270v590q0 47 -3.5 83.5t-16 76.5t-33 66.5t-57.5 43.5t-87 17q-72 0 -122 -32t-74.5 -87t-34.5 -112.5t-10 -125.5v-520h-271z" />
<glyph unicode="o" horiz-adv-x="1271" d="M74 535q0 174 77 304t203.5 195.5t280.5 65.5q155 0 282 -65.5t204 -195.5t77 -304t-77.5 -304t-204 -195t-281.5 -65q-115 0 -216.5 38.5t-178.5 109t-121.5 178t-44.5 238.5zM338 537q0 -153 80.5 -247.5t216.5 -94.5q139 0 220 94.5t81 247.5q0 150 -81 243.5 t-220 93.5q-136 0 -216.5 -93.5t-80.5 -243.5z" />
<glyph unicode="p" horiz-adv-x="1286" d="M150 -498v1569h176l80 -137q42 77 128.5 121.5t184.5 44.5q151 0 265 -79t171 -206.5t57 -282.5q0 -113 -34 -214.5t-95.5 -178.5t-155 -122.5t-206.5 -45.5q-87 0 -169 36t-130 99h-4v-604h-268zM414 535q0 -145 68.5 -241.5t197.5 -96.5q125 0 193.5 97t68.5 241 q0 146 -68.5 242.5t-193.5 96.5q-129 0 -197.5 -96t-68.5 -243z" />
<glyph unicode="q" horiz-adv-x="1292" d="M80 532q0 155 57 282.5t171 206.5t265 79q98 0 185 -44.5t129 -121.5l80 137h176v-1569h-269v604h-4q-48 -63 -130 -99t-169 -36q-113 0 -206.5 45.5t-155 122.5t-95.5 178.5t-34 214.5zM350 535q0 -144 68.5 -241t193.5 -97q129 0 198 96.5t69 241.5q0 146 -69 242.5 t-198 96.5q-125 0 -193.5 -96.5t-68.5 -242.5z" />
<glyph unicode="r" horiz-adv-x="800" d="M141 0v1071h174l97 -166q42 93 113 141t161 48q45 0 84 -15v-250q-52 19 -98 19q-110 0 -183 -92t-73 -277v-479h-275z" />
<glyph unicode="s" horiz-adv-x="933" d="M72 797q0 130 106 217.5t283 87.5q172 0 332 -88v-217q-182 102 -318 102q-62 0 -101.5 -28.5t-39.5 -82.5q0 -56 44.5 -87.5t156.5 -65.5q44 -13 74 -24.5t72.5 -31t71 -44t55.5 -57.5t40.5 -78.5t13.5 -100.5q0 -142 -111 -235t-292 -93q-202 0 -355 90v220 q179 -107 336 -107q75 0 117.5 31t42.5 84q0 61 -41.5 89t-159.5 64q-43 13 -74 25t-72.5 32t-70.5 46t-56 61.5t-40.5 84t-13.5 106.5z" />
<glyph unicode="t" horiz-adv-x="790" d="M41 854v205h61q48 0 76.5 28.5t28.5 77.5v178h250v-272h256v-217h-256v-526q0 -64 36 -99.5t99 -35.5q62 0 135 24v-217q-95 -29 -190 -29q-159 0 -253 92.5t-94 245.5v545h-149z" />
<glyph unicode="u" horiz-adv-x="1189" d="M121 418v653h266v-612q0 -37 5 -70t19.5 -68t37 -59.5t60 -40.5t85.5 -16q60 0 103 23t65 62.5t31.5 80.5t9.5 88v612h266l-2 -653q0 -196 -130 -321.5t-343 -125.5t-343 125.5t-130 321.5z" />
<glyph unicode="v" horiz-adv-x="1161" d="M0 1071h272l308 -698l307 698h272l-487 -1081h-185z" />
<glyph unicode="w" horiz-adv-x="1878" d="M-4 1071h270l277 -670l299 676h194l299 -676l277 670h270l-452 -1081h-173l-317 715l-319 -715h-172z" />
<glyph unicode="x" horiz-adv-x="1173" d="M-2 0l434 580l-369 491h312l213 -297l211 297h311l-367 -491l433 -580h-314l-274 383l-275 -383h-315z" />
<glyph unicode="y" horiz-adv-x="1177" d="M14 1071h271l307 -694l309 694h270l-702 -1569h-274l262 586z" />
<glyph unicode="z" horiz-adv-x="1026" d="M102 0v164l486 688h-479v219h815v-164l-486 -688h480v-219h-816z" />
<glyph unicode="{" horiz-adv-x="872" d="M88 547v209q114 5 167.5 74.5t53.5 232.5v162q0 188 80.5 274t267.5 86h80v-203h-35q-42 0 -68.5 -3t-48 -14t-32 -25.5t-17.5 -46t-8.5 -66.5t-1.5 -94q0 -216 -33 -310.5t-147 -171.5q113 -77 146.5 -171.5t33.5 -307.5q0 -51 1.5 -83t5 -62t12.5 -46.5t20.5 -30 t32 -19t44.5 -8.5t60 -3h35v-203h-80q-188 0 -268 86t-80 275v160q0 164 -53.5 234t-167.5 75z" />
<glyph unicode="|" horiz-adv-x="978" d="M385 -279v1852h209v-1852h-209z" />
<glyph unicode="}" horiz-adv-x="872" d="M135 -80h35q36 0 60 3t44.5 8.5t32 19t20.5 30t12.5 46.5t5 62t1.5 83q0 213 33.5 307.5t146.5 171.5q-114 77 -147 171.5t-33 310.5q0 59 -1.5 94t-8.5 66.5t-17.5 46t-32 25.5t-48 14t-68.5 3h-35v203h80q187 0 267.5 -86t80.5 -274v-162q0 -163 53.5 -232.5 t167.5 -74.5v-209q-114 -5 -167.5 -75t-53.5 -234v-160q0 -189 -80 -275t-268 -86h-80v203z" />
<glyph unicode="~" horiz-adv-x="1519" d="M205 547v233q92 76 164 110t145 34q97 0 266 -78q88 -41 144.5 -59.5t105.5 -18.5q63 0 128 34.5t157 115.5v-230q-143 -143 -295 -143q-115 0 -279 76q-164 79 -249 79q-62 0 -125.5 -35t-161.5 -118z" />
<glyph unicode="&#xa1;" horiz-adv-x="704" d="M190 938q0 66 48 114t114 48t114 -48t48 -114t-48 -113t-114 -47t-114 47t-48 113zM215 -14l61 602h164l62 -604v-371h-287v373z" />
<glyph unicode="&#xa2;" horiz-adv-x="1230" d="M141 729q0 249 159 405t405 158l24 168h145l-26 -184q89 -19 170 -66v-239q-89 66 -203 88l-96 -670h22q69 0 143.5 26.5t133.5 69.5v-239q-143 -82 -309 -82h-23l-24 -162h-146l27 182q-182 48 -292 193.5t-110 351.5zM410 727q3 -155 92 -244q34 -34 76 -57l94 635 q-103 -18 -172 -90q-87 -90 -90 -244z" />
<glyph unicode="&#xa3;" horiz-adv-x="1247" d="M119 625v233h190v219q0 133 56.5 228t149 140.5t210.5 45.5q159 0 322 -82v-250q-154 94 -293 94q-82 0 -130.5 -45t-48.5 -145v-205h334v-233h-331v-389h536v-236h-805v625h-190z" />
<glyph unicode="&#xa4;" horiz-adv-x="1447" d="M178 1151l117 115l119 -119q137 102 315 102q179 0 313 -102l111 108l117 -114l-111 -109q105 -138 105 -313t-105 -316l111 -112l-115 -117l-113 113q-135 -103 -313 -103q-177 0 -315 103l-111 -113l-113 119l107 110q-100 142 -100 316t100 313zM408 717 q0 -132 93.5 -226t225.5 -94t226 94t94 226t-94 225.5t-226 93.5t-225.5 -93.5t-93.5 -225.5z" />
<glyph unicode="&#xa5;" horiz-adv-x="1421" d="M51 1458h316l344 -536l344 536h315l-452 -690h315v-188h-385v-162h385v-189h-385v-229h-275v229h-383v189h383v162h-383v188h314z" />
<glyph unicode="&#xa6;" horiz-adv-x="978" d="M385 -279v674h209v-674h-209zM385 899v674h209v-674h-209z" />
<glyph unicode="&#xa7;" horiz-adv-x="1165" d="M164 631q0 71 32 134t91 107q-123 100 -123 281q0 140 113 235t301 95q183 0 352 -94v-222q-190 109 -336 109q-71 0 -117.5 -33.5t-46.5 -97.5q0 -73 46.5 -109.5t156.5 -72.5q139 -48 192 -76q158 -85 174 -243q2 -20 2 -40q0 -166 -133 -266q133 -89 133 -256 q0 -153 -118.5 -253.5t-311.5 -100.5q-213 0 -374 96v227q183 -114 354 -114q85 0 134.5 36t49.5 97q0 17 -3 31t-6 25.5t-12.5 22t-16 17.5t-23 15.5t-26 13.5t-32.5 13.5t-36.5 12.5t-43.5 13.5t-47 15.5q-37 13 -60 21.5t-61 27t-62.5 36.5t-54 48t-46.5 64t-29 81.5 t-12 102.5zM430 623q0 -63 35.5 -98.5t112.5 -65.5q73 6 115 41t42 92q0 35 -9.5 59t-36 42t-53.5 29.5t-81 29.5q-56 -10 -90.5 -42.5t-34.5 -86.5z" />
<glyph unicode="&#xa8;" horiz-adv-x="1228" d="M248 1352q0 60 42 102.5t103 42.5q60 0 102 -42.5t42 -102.5t-42 -102t-102 -42q-61 0 -103 42t-42 102zM694 1352q0 60 42.5 102.5t101.5 42.5q61 0 103 -42.5t42 -102.5t-42 -102t-103 -42q-59 0 -101.5 42t-42.5 102z" />
<glyph unicode="&#xa9;" horiz-adv-x="1992" d="M158 618q0 167 65 319t174.5 261.5t261 174.5t318.5 65t319 -65t262 -174.5t175 -261.5t65 -319t-65 -318.5t-175 -261t-262 -174.5t-319 -65t-318.5 65t-261 174.5t-174.5 261t-65 318.5zM332 618q0 -176 86 -325t234.5 -235.5t324.5 -86.5t325 86.5t235.5 235.5 t86.5 325q0 132 -51 252t-137.5 206.5t-206.5 138t-252 51.5t-251.5 -51.5t-205.5 -138t-137 -206.5t-51 -252zM571 616q0 95 35.5 174.5t96 132.5t139 82t164.5 29q134 0 229 -59v-160l-6 -4q-41 28 -98 47t-111 19q-115 0 -192.5 -68.5t-77.5 -192.5q0 -123 77.5 -191.5 t192.5 -68.5q54 0 111 19t98 47l6 -4v-162q-97 -57 -229 -57q-116 0 -214 49t-159.5 145.5t-61.5 222.5z" />
<glyph unicode="&#xab;" horiz-adv-x="1476" d="M164 528l323 447h281l-317 -447l317 -446h-281zM709 528l321 447h283l-320 -447l320 -446h-283z" />
<glyph unicode="&#xac;" horiz-adv-x="1585" d="M180 864v217h1225v-721h-219l2 504h-1008z" />
<glyph unicode="&#xad;" horiz-adv-x="1071" d="M164 528v213h743v-213h-743z" />
<glyph unicode="&#xae;" horiz-adv-x="1955" d="M158 618q0 167 65 319t174.5 261.5t261 174.5t318.5 65t319 -65t262 -174.5t175 -261.5t65 -319t-65 -318.5t-175 -261t-262 -174.5t-319 -65t-318.5 65t-261 174.5t-174.5 261t-65 318.5zM332 618q0 -176 86 -325t234.5 -235.5t324.5 -86.5t325 86.5t235.5 235.5 t86.5 325q0 132 -51 252t-137.5 206.5t-206.5 138t-252 51.5t-251.5 -51.5t-205.5 -138t-137 -206.5t-51 -252zM711 219l2 795h315q100 0 171 -71t71 -173q0 -84 -50.5 -147.5t-129.5 -85.5l253 -318h-206l-236 311h-10v-311h-180zM889 666h102q43 0 74 31t31 73 q0 43 -31 75t-74 32h-102v-211z" />
<glyph unicode="&#xaf;" horiz-adv-x="1228" d="M258 1268v196h713v-196h-713z" />
<glyph unicode="&#xb0;" horiz-adv-x="872" d="M109 1460q0 135 96 231.5t231 96.5t231.5 -96.5t96.5 -231.5q0 -134 -96.5 -230.5t-231.5 -96.5t-231 96.5t-96 230.5zM276 1460q0 -67 47 -114.5t113 -47.5t112 46.5t46 115.5q0 68 -46 115t-112 47q-68 0 -114 -46.5t-46 -115.5z" />
<glyph unicode="&#xb1;" horiz-adv-x="1380" d="M205 121v192l971 -2v-190h-971zM205 817v193h377v327h217v-327l377 -2v-191h-377v-330l-217 2v328h-377z" />
<glyph unicode="&#xb4;" horiz-adv-x="1228" d="M555 1219l152 294h297l-314 -294h-135z" />
<glyph unicode="&#xb6;" horiz-adv-x="1241" d="M98 1081q0 155 110 266t265 111h686v-203h-127v-1339h-203v1339h-176v-1339h-198v793q-149 7 -253 115.5t-104 256.5z" />
<glyph unicode="&#xb7;" horiz-adv-x="620" d="M135 600q0 71 51 121.5t123 50.5t123 -50.5t51 -121.5q0 -73 -51 -124.5t-123 -51.5t-123 51.5t-51 124.5z" />
<glyph unicode="&#xb8;" horiz-adv-x="1228" d="M401 -338l39 88q82 -29 123 -29q76 0 76 64q0 21 -17 34t-44 13q-36 0 -68 -14l-45 39l94 147h111l-56 -80q5 0 15 1t14 1q62 0 108 -36.5t46 -102.5q0 -78 -60 -120t-151 -42q-98 0 -185 37z" />
<glyph unicode="&#xbb;" horiz-adv-x="1458" d="M164 98l313 439l-313 438h278l316 -438l-316 -439h-278zM700 98l312 439l-312 438h277l317 -438l-317 -439h-277z" />
<glyph unicode="&#xbf;" horiz-adv-x="1058" d="M143 -61q0 95 48.5 175t156.5 193l141 150v161h230v-243l-244 -256q-49 -53 -71.5 -94.5t-22.5 -85.5q0 -65 45.5 -105.5t112.5 -40.5q86 0 129.5 55.5t40.5 137.5h229q6 -179 -103.5 -291.5t-295.5 -112.5q-179 0 -287.5 99t-108.5 258zM444 938q0 66 48 114t114 48 t114 -48t48 -114t-48 -113t-114 -47t-114 47t-48 113z" />
<glyph unicode="&#xc0;" horiz-adv-x="1449" d="M31 0l551 1458h286l551 -1458h-291l-131 348h-544l-134 -348h-288zM338 1935h297l151 -295h-135zM537 578h376l-188 516z" />
<glyph unicode="&#xc1;" horiz-adv-x="1449" d="M31 0l551 1458h286l551 -1458h-291l-131 348h-544l-134 -348h-288zM537 578h376l-188 516zM662 1640l151 295h297l-313 -295h-135z" />
<glyph unicode="&#xc2;" horiz-adv-x="1449" d="M31 0l551 1458h286l551 -1458h-291l-131 348h-544l-134 -348h-288zM348 1640l248 295h266l240 -295h-232l-141 168l-149 -168h-232zM537 578h376l-188 516z" />
<glyph unicode="&#xc3;" horiz-adv-x="1449" d="M31 0l551 1458h286l551 -1458h-291l-131 348h-544l-134 -348h-288zM354 1640q10 130 69 201.5t155 71.5q46 0 104 -26.5t111.5 -52.5t89.5 -26q71 0 92 105h115q-7 -133 -65 -205t-155 -72q-45 0 -105.5 26t-116 52.5t-89.5 26.5q-35 0 -60.5 -27.5t-33.5 -73.5h-111z M537 578h376l-188 516z" />
<glyph unicode="&#xc4;" horiz-adv-x="1449" d="M31 0l551 1458h286l551 -1458h-291l-131 348h-544l-134 -348h-288zM356 1774q0 60 42.5 102.5t103.5 42.5q60 0 101.5 -42.5t41.5 -102.5t-41.5 -102t-101.5 -42q-61 0 -103.5 42t-42.5 102zM537 578h376l-188 516zM803 1774q0 60 42 102.5t101 42.5q61 0 103.5 -42.5 t42.5 -102.5t-42.5 -102t-103.5 -42q-59 0 -101 42t-42 102z" />
<glyph unicode="&#xc5;" horiz-adv-x="1449" d="M31 0l551 1458h286l551 -1458h-291l-131 348h-544l-134 -348h-288zM502 1806q0 90 65.5 156t155.5 66q91 0 156 -66t65 -156q0 -91 -64.5 -156t-156.5 -65q-91 0 -156 65t-65 156zM537 578h376l-188 516zM623 1806q0 -43 28.5 -71.5t71.5 -28.5q42 0 71 29t29 71 q0 41 -29.5 71t-70.5 30q-42 0 -71 -29.5t-29 -71.5z" />
<glyph unicode="&#xc6;" horiz-adv-x="2002" d="M-51 0l1026 1458h911v-244h-536v-337h489v-240h-489v-393h536v-244h-809v348h-549l-245 -348h-334zM688 578h389v552z" />
<glyph unicode="&#xc7;" horiz-adv-x="1406" d="M92 731q0 173 63.5 317t172 239t250.5 147.5t301 52.5q226 0 411 -103v-256q-78 50 -182.5 83.5t-200.5 33.5q-86 0 -165 -21t-146 -63.5t-117 -103t-78 -144.5t-28 -182t28 -182t78 -144.5t117 -103t146 -63.5t165 -21q96 0 200.5 33.5t182.5 83.5v-256 q-185 -103 -411 -103q-159 0 -301 52.5t-250.5 147.5t-172 239t-63.5 317zM682 -338l39 88q82 -29 123 -29q76 0 76 64q0 21 -17.5 34t-44.5 13q-35 0 -67 -14l-46 39l95 147h110l-55 -80q5 0 15 1t14 1q62 0 107.5 -36.5t45.5 -102.5q0 -78 -60 -120t-151 -42 q-97 0 -184 37z" />
<glyph unicode="&#xc8;" horiz-adv-x="1085" d="M154 0v1458h809v-244h-537v-337h489v-240h-489v-393h537v-244h-809zM186 1935h297l152 -295h-135z" />
<glyph unicode="&#xc9;" horiz-adv-x="1085" d="M154 0v1458h809v-244h-537v-337h489v-240h-489v-393h537v-244h-809zM510 1640l152 295h296l-313 -295h-135z" />
<glyph unicode="&#xca;" horiz-adv-x="1085" d="M154 0v1458h809v-244h-537v-337h489v-240h-489v-393h537v-244h-809zM197 1640l247 295h267l239 -295h-231l-141 168l-150 -168h-231z" />
<glyph unicode="&#xcb;" horiz-adv-x="1085" d="M154 0v1458h809v-244h-537v-337h489v-240h-489v-393h537v-244h-809zM205 1774q0 60 42 102.5t103 42.5q60 0 102 -42.5t42 -102.5t-42 -102t-102 -42q-61 0 -103 42t-42 102zM651 1774q0 60 42.5 102.5t101.5 42.5q61 0 103 -42.5t42 -102.5t-42 -102t-103 -42 q-59 0 -101.5 42t-42.5 102z" />
<glyph unicode="&#xcc;" horiz-adv-x="606" d="M-80 1935h297l152 -295h-136zM164 0v1458h278v-1458h-278z" />
<glyph unicode="&#xcd;" horiz-adv-x="606" d="M164 0v1458h278v-1458h-278zM244 1640l151 295h297l-313 -295h-135z" />
<glyph unicode="&#xce;" horiz-adv-x="606" d="M-70 1640l248 295h266l240 -295h-231l-142 168l-149 -168h-232zM164 0v1458h278v-1458h-278z" />
<glyph unicode="&#xcf;" horiz-adv-x="606" d="M-61 1774q0 60 42 102.5t103 42.5q60 0 101.5 -42.5t41.5 -102.5t-41.5 -102t-101.5 -42q-61 0 -103 42t-42 102zM164 0v1458h278v-1458h-278zM385 1774q0 60 42 102.5t101 42.5q61 0 103.5 -42.5t42.5 -102.5t-42.5 -102t-103.5 -42q-59 0 -101 42t-42 102z" />
<glyph unicode="&#xd0;" horiz-adv-x="1542" d="M61 629v202h144v627h520q207 0 373 -91t262 -258.5t96 -381.5q0 -159 -56 -295.5t-154 -230.5t-232.5 -147.5t-288.5 -53.5h-520v629h-144zM483 244h226q201 0 335 134t134 349q0 216 -134 351.5t-335 135.5h-226v-383h324v-202h-324v-385z" />
<glyph unicode="&#xd1;" horiz-adv-x="1652" d="M154 0v1458h266l807 -1028v1028h272v-1458h-264l-807 1022v-1022h-274zM475 1640q10 130 69 201.5t154 71.5q46 0 104 -26.5t112 -52.5t90 -26q71 0 92 105h114q-7 -133 -64.5 -205t-154.5 -72q-45 0 -105.5 26t-116 52.5t-89.5 26.5q-35 0 -60.5 -27.5t-33.5 -73.5h-111 z" />
<glyph unicode="&#xd2;" horiz-adv-x="1714" d="M92 729q0 143 42 266.5t115.5 213t171 153.5t209 95.5t228.5 31.5t228 -31.5t208 -95.5t170.5 -153.5t115.5 -213t42 -266.5t-42 -266.5t-115.5 -212.5t-170.5 -152.5t-208 -95t-228 -31.5t-228.5 31.5t-209 95t-171 152.5t-115.5 212.5t-42 266.5zM371 729 q0 -120 42.5 -218.5t112 -160.5t155.5 -95.5t177 -33.5q90 0 175.5 33.5t155 95.5t112 160.5t42.5 218.5q0 121 -42.5 220t-112 161t-155 95.5t-175.5 33.5q-91 0 -177 -33.5t-155.5 -95.5t-112 -161t-42.5 -220zM473 1935h297l152 -295h-136z" />
<glyph unicode="&#xd3;" horiz-adv-x="1714" d="M92 729q0 143 42 266.5t115.5 213t171 153.5t209 95.5t228.5 31.5t228 -31.5t208 -95.5t170.5 -153.5t115.5 -213t42 -266.5t-42 -266.5t-115.5 -212.5t-170.5 -152.5t-208 -95t-228 -31.5t-228.5 31.5t-209 95t-171 152.5t-115.5 212.5t-42 266.5zM371 729 q0 -120 42.5 -218.5t112 -160.5t155.5 -95.5t177 -33.5q90 0 175.5 33.5t155 95.5t112 160.5t42.5 218.5q0 121 -42.5 220t-112 161t-155 95.5t-175.5 33.5q-91 0 -177 -33.5t-155.5 -95.5t-112 -161t-42.5 -220zM797 1640l151 295h297l-313 -295h-135z" />
<glyph unicode="&#xd4;" horiz-adv-x="1714" d="M92 729q0 143 42 266.5t115.5 213t171 153.5t209 95.5t228.5 31.5t228 -31.5t208 -95.5t170.5 -153.5t115.5 -213t42 -266.5t-42 -266.5t-115.5 -212.5t-170.5 -152.5t-208 -95t-228 -31.5t-228.5 31.5t-209 95t-171 152.5t-115.5 212.5t-42 266.5zM371 729 q0 -120 42.5 -218.5t112 -160.5t155.5 -95.5t177 -33.5q90 0 175.5 33.5t155 95.5t112 160.5t42.5 218.5q0 121 -42.5 220t-112 161t-155 95.5t-175.5 33.5q-91 0 -177 -33.5t-155.5 -95.5t-112 -161t-42.5 -220zM483 1640l248 295h266l240 -295h-231l-142 168l-149 -168 h-232z" />
<glyph unicode="&#xd5;" horiz-adv-x="1714" d="M92 729q0 143 42 266.5t115.5 213t171 153.5t209 95.5t228.5 31.5t228 -31.5t208 -95.5t170.5 -153.5t115.5 -213t42 -266.5t-42 -266.5t-115.5 -212.5t-170.5 -152.5t-208 -95t-228 -31.5t-228.5 31.5t-209 95t-171 152.5t-115.5 212.5t-42 266.5zM371 729 q0 -120 42.5 -218.5t112 -160.5t155.5 -95.5t177 -33.5q90 0 175.5 33.5t155 95.5t112 160.5t42.5 218.5q0 121 -42.5 220t-112 161t-155 95.5t-175.5 33.5q-91 0 -177 -33.5t-155.5 -95.5t-112 -161t-42.5 -220zM489 1640q10 130 69 201.5t155 71.5q46 0 104 -26.5 t111.5 -52.5t89.5 -26q71 0 92 105h115q-7 -133 -64.5 -205t-154.5 -72q-45 0 -105.5 26t-116.5 52.5t-90 26.5q-35 0 -60.5 -27.5t-33.5 -73.5h-111z" />
<glyph unicode="&#xd6;" horiz-adv-x="1714" d="M92 729q0 143 42 266.5t115.5 213t171 153.5t209 95.5t228.5 31.5t228 -31.5t208 -95.5t170.5 -153.5t115.5 -213t42 -266.5t-42 -266.5t-115.5 -212.5t-170.5 -152.5t-208 -95t-228 -31.5t-228.5 31.5t-209 95t-171 152.5t-115.5 212.5t-42 266.5zM371 729 q0 -120 42.5 -218.5t112 -160.5t155.5 -95.5t177 -33.5q90 0 175.5 33.5t155 95.5t112 160.5t42.5 218.5q0 121 -42.5 220t-112 161t-155 95.5t-175.5 33.5q-91 0 -177 -33.5t-155.5 -95.5t-112 -161t-42.5 -220zM492 1774q0 60 42 102.5t103 42.5q60 0 101.5 -42.5 t41.5 -102.5t-41.5 -102t-101.5 -42q-61 0 -103 42t-42 102zM938 1774q0 60 42 102.5t101 42.5q61 0 103.5 -42.5t42.5 -102.5t-42.5 -102t-103.5 -42q-59 0 -101 42t-42 102z" />
<glyph unicode="&#xd7;" horiz-adv-x="1413" d="M197 369l356 354l-356 358l153 154l355 -354l356 354l156 -154l-357 -358l357 -354l-156 -154l-356 354l-355 -356z" />
<glyph unicode="&#xd8;" horiz-adv-x="1716" d="M57 -31l209 252q-182 205 -182 508q0 143 42 266.5t115.5 213t171 153.5t209 95.5t228.5 31.5q212 0 389 -98l84 102h317l-210 -254q184 -204 184 -510q0 -143 -42 -266.5t-115.5 -212.5t-170.5 -152.5t-208 -95t-228 -31.5q-212 0 -391 99l-84 -101h-318zM362 729 q0 -168 82 -293l625 752q-108 51 -219 51q-91 0 -177 -33.5t-156 -95.5t-112.5 -161t-42.5 -220zM629 274q106 -53 221 -53q90 0 175.5 33.5t155 95.5t112 160.5t42.5 218.5q0 165 -84 297z" />
<glyph unicode="&#xd9;" horiz-adv-x="1478" d="M143 565v893h275l2 -915q0 -138 92.5 -229t226.5 -91t227 91t93 229l2 915h274v-893q0 -171 -80 -308.5t-216 -212.5t-300 -75t-300 75t-216 212.5t-80 308.5zM354 1935h297l152 -295h-135z" />
<glyph unicode="&#xda;" horiz-adv-x="1478" d="M143 565v893h275l2 -915q0 -138 92.5 -229t226.5 -91t227 91t93 229l2 915h274v-893q0 -171 -80 -308.5t-216 -212.5t-300 -75t-300 75t-216 212.5t-80 308.5zM678 1640l151 295h297l-313 -295h-135z" />
<glyph unicode="&#xdb;" horiz-adv-x="1478" d="M143 565v893h275l2 -915q0 -138 92.5 -229t226.5 -91t227 91t93 229l2 915h274v-893q0 -171 -80 -308.5t-216 -212.5t-300 -75t-300 75t-216 212.5t-80 308.5zM365 1640l247 295h267l239 -295h-231l-142 168l-149 -168h-231z" />
<glyph unicode="&#xdc;" horiz-adv-x="1478" d="M143 565v893h275l2 -915q0 -138 92.5 -229t226.5 -91t227 91t93 229l2 915h274v-893q0 -171 -80 -308.5t-216 -212.5t-300 -75t-300 75t-216 212.5t-80 308.5zM373 1774q0 60 42 102.5t103 42.5q60 0 102 -42.5t42 -102.5t-42 -102t-102 -42q-61 0 -103 42t-42 102z M819 1774q0 60 42.5 102.5t101.5 42.5q61 0 103 -42.5t42 -102.5t-42 -102t-103 -42q-59 0 -101.5 42t-42.5 102z" />
<glyph unicode="&#xdd;" horiz-adv-x="1327" d="M4 1458h315l345 -536l344 536h315l-522 -794v-664h-275v664zM602 1640l152 295h297l-314 -295h-135z" />
<glyph unicode="&#xde;" horiz-adv-x="1167" d="M154 0v1458h268v-282h225q119 0 220 -59t159.5 -160.5t58.5 -221.5q0 -181 -128.5 -309.5t-309.5 -128.5h-225v-297h-268zM422 526h178q88 0 149.5 61.5t61.5 149.5q0 86 -61.5 147.5t-149.5 61.5h-178v-420z" />
<glyph unicode="&#xdf;" horiz-adv-x="1300" d="M139 0v1116q0 221 125.5 352t341.5 131q220 0 346.5 -109.5t126.5 -293.5q0 -61 -17.5 -113.5t-40 -86t-60.5 -65.5t-60 -46t-57 -33q-41 -25 -41 -53q0 -16 10.5 -29.5t44.5 -30.5q21 -11 72 -34.5t87 -41t83 -51t77 -69t51 -90t21 -119.5q0 -155 -117 -259t-309 -104 q-123 0 -262 49v224q145 -62 242 -62q82 0 130 38.5t48 105.5q0 27 -6 49.5t-20.5 41t-27.5 31.5t-39.5 27t-42 21.5t-50 22.5t-50.5 22q-40 18 -68.5 36.5t-56 46t-41.5 65.5t-14 85q0 32 9 60.5t19 46.5t33.5 41.5t34.5 32.5t41 32q34 27 54 47.5t37.5 59t17.5 86.5 q0 89 -59 139.5t-140 50.5q-92 0 -146 -62.5t-54 -179.5v-1128h-273z" />
<glyph unicode="&#xe0;" horiz-adv-x="1122" d="M63 303q0 119 78 198t230 111l254 56q59 13 86.5 35t27.5 67q0 67 -52 100t-132 33q-91 0 -145 -42.5t-54 -115.5h-252q6 161 130 259t327 98q208 0 327.5 -103.5t119.5 -314.5v-684h-168l-74 127q-47 -71 -132 -112.5t-183 -41.5q-177 0 -282.5 94t-105.5 236zM170 1569 h297l151 -295h-135zM315 309q0 -67 48 -106t122 -39q105 0 182.5 71.5t77.5 192.5v76q-43 -8 -131 -23.5t-131 -23.5q-168 -28 -168 -148z" />
<glyph unicode="&#xe1;" horiz-adv-x="1122" d="M63 303q0 119 78 198t230 111l254 56q59 13 86.5 35t27.5 67q0 67 -52 100t-132 33q-91 0 -145 -42.5t-54 -115.5h-252q6 161 130 259t327 98q208 0 327.5 -103.5t119.5 -314.5v-684h-168l-74 127q-47 -71 -132 -112.5t-183 -41.5q-177 0 -282.5 94t-105.5 236zM315 309 q0 -67 48 -106t122 -39q105 0 182.5 71.5t77.5 192.5v76q-43 -8 -131 -23.5t-131 -23.5q-168 -28 -168 -148zM494 1274l151 295h297l-313 -295h-135z" />
<glyph unicode="&#xe2;" horiz-adv-x="1122" d="M63 303q0 119 78 198t230 111l254 56q59 13 86.5 35t27.5 67q0 67 -52 100t-132 33q-91 0 -145 -42.5t-54 -115.5h-252q6 161 130 259t327 98q208 0 327.5 -103.5t119.5 -314.5v-684h-168l-74 127q-47 -71 -132 -112.5t-183 -41.5q-177 0 -282.5 94t-105.5 236zM180 1274 l248 295h266l240 -295h-232l-141 168l-149 -168h-232zM315 309q0 -67 48 -106t122 -39q105 0 182.5 71.5t77.5 192.5v76q-43 -8 -131 -23.5t-131 -23.5q-168 -28 -168 -148z" />
<glyph unicode="&#xe3;" horiz-adv-x="1122" d="M63 303q0 119 78 198t230 111l254 56q59 13 86.5 35t27.5 67q0 67 -52 100t-132 33q-91 0 -145 -42.5t-54 -115.5h-252q6 161 130 259t327 98q208 0 327.5 -103.5t119.5 -314.5v-684h-168l-74 127q-47 -71 -132 -112.5t-183 -41.5q-177 0 -282.5 94t-105.5 236zM186 1274 q10 130 69 201t155 71q46 0 104 -26t111.5 -52t89.5 -26q71 0 92 104h115q-7 -133 -65 -204.5t-155 -71.5q-56 0 -164.5 52t-146.5 52q-35 0 -61 -27t-33 -73h-111zM315 309q0 -67 48 -106t122 -39q105 0 182.5 71.5t77.5 192.5v76q-43 -8 -131 -23.5t-131 -23.5 q-168 -28 -168 -148z" />
<glyph unicode="&#xe4;" horiz-adv-x="1122" d="M63 303q0 119 78 198t230 111l254 56q59 13 86.5 35t27.5 67q0 67 -52 100t-132 33q-91 0 -145 -42.5t-54 -115.5h-252q6 161 130 259t327 98q208 0 327.5 -103.5t119.5 -314.5v-684h-168l-74 127q-47 -71 -132 -112.5t-183 -41.5q-177 0 -282.5 94t-105.5 236zM188 1407 q0 60 42.5 102.5t103.5 42.5q60 0 101.5 -42.5t41.5 -102.5t-41.5 -101.5t-101.5 -41.5q-61 0 -103.5 41.5t-42.5 101.5zM315 309q0 -67 48 -106t122 -39q105 0 182.5 71.5t77.5 192.5v76q-43 -8 -131 -23.5t-131 -23.5q-168 -28 -168 -148zM635 1407q0 60 42 102.5 t101 42.5q61 0 103.5 -42.5t42.5 -102.5t-42.5 -101.5t-103.5 -41.5q-59 0 -101 41.5t-42 101.5z" />
<glyph unicode="&#xe5;" horiz-adv-x="1122" d="M63 303q0 119 78 198t230 111l254 56q59 13 86.5 35t27.5 67q0 67 -52 100t-132 33q-91 0 -145 -42.5t-54 -115.5h-252q6 161 130 259t327 98q208 0 327.5 -103.5t119.5 -314.5v-684h-168l-74 127q-47 -71 -132 -112.5t-183 -41.5q-177 0 -282.5 94t-105.5 236zM315 309 q0 -67 48 -106t122 -39q105 0 182.5 71.5t77.5 192.5v76q-43 -8 -131 -23.5t-131 -23.5q-168 -28 -168 -148zM334 1440q0 90 65.5 155.5t155.5 65.5q92 0 156.5 -65.5t64.5 -155.5q0 -91 -64.5 -156t-156.5 -65q-91 0 -156 65t-65 156zM455 1440q0 -43 28.5 -72t71.5 -29 q41 0 70.5 29.5t29.5 71.5q0 41 -29.5 70.5t-70.5 29.5q-42 0 -71 -29t-29 -71z" />
<glyph unicode="&#xe6;" horiz-adv-x="1845" d="M63 303q0 119 78 198t230 111l254 56q59 13 86.5 35t27.5 67q0 67 -52 100t-132 33q-91 0 -145 -42.5t-54 -115.5h-252q6 161 130 259t327 98q233 0 348 -127q142 127 346 127q232 0 376.5 -150.5t144.5 -412.5q0 -57 -4 -86h-783q18 -122 87 -194.5t179 -72.5 q167 0 234 144h258q-50 -170 -180 -261.5t-312 -91.5q-126 0 -230.5 47.5t-172.5 137.5q-132 -189 -401 -189q-177 0 -282.5 94t-105.5 236zM315 309q0 -67 48 -106t122 -39q105 0 182.5 71.5t77.5 192.5v76q-43 -8 -131 -23.5t-131 -23.5q-168 -28 -168 -148zM991 645h531 q-18 114 -85 180t-182 66q-107 0 -175 -66.5t-89 -179.5z" />
<glyph unicode="&#xe7;" horiz-adv-x="1050" d="M74 537q0 165 73.5 294t202.5 199t291 70q166 0 309 -82v-240q-59 43 -133.5 69.5t-142.5 26.5q-153 0 -246 -96q-90 -93 -90 -243q0 -152 92 -244q91 -94 244 -94q68 0 142.5 26.5t133.5 69.5v-240q-143 -82 -309 -82q-247 0 -407 157.5t-160 408.5zM444 -338l39 88 q82 -29 123 -29q76 0 76 64q0 21 -17 34t-44 13q-37 0 -68 -14l-45 39l94 147h111l-56 -80q5 0 15 1t14 1q62 0 108 -36.5t46 -102.5q0 -78 -60 -120t-151 -42q-98 0 -185 37z" />
<glyph unicode="&#xe8;" horiz-adv-x="1187" d="M72 535q0 131 40.5 238.5t111 178.5t165.5 109.5t205 38.5q233 0 377.5 -150.5t144.5 -414.5q0 -28 -4 -78h-786q15 -126 85.5 -201.5t182.5 -75.5q169 0 231 144h262q-52 -171 -182 -262t-311 -91q-228 0 -375 149t-147 415zM209 1569h297l151 -295h-135zM328 641h534 q-20 115 -86.5 181.5t-181.5 66.5q-107 0 -175 -67.5t-91 -180.5z" />
<glyph unicode="&#xe9;" horiz-adv-x="1187" d="M72 535q0 131 40.5 238.5t111 178.5t165.5 109.5t205 38.5q233 0 377.5 -150.5t144.5 -414.5q0 -28 -4 -78h-786q15 -126 85.5 -201.5t182.5 -75.5q169 0 231 144h262q-52 -171 -182 -262t-311 -91q-228 0 -375 149t-147 415zM328 641h534q-20 115 -86.5 181.5 t-181.5 66.5q-107 0 -175 -67.5t-91 -180.5zM532 1274l152 295h297l-313 -295h-136z" />
<glyph unicode="&#xea;" horiz-adv-x="1187" d="M72 535q0 131 40.5 238.5t111 178.5t165.5 109.5t205 38.5q233 0 377.5 -150.5t144.5 -414.5q0 -28 -4 -78h-786q15 -126 85.5 -201.5t182.5 -75.5q169 0 231 144h262q-52 -171 -182 -262t-311 -91q-228 0 -375 149t-147 415zM219 1274l248 295h266l240 -295h-232 l-141 168l-149 -168h-232zM328 641h534q-20 115 -86.5 181.5t-181.5 66.5q-107 0 -175 -67.5t-91 -180.5z" />
<glyph unicode="&#xeb;" horiz-adv-x="1187" d="M72 535q0 131 40.5 238.5t111 178.5t165.5 109.5t205 38.5q233 0 377.5 -150.5t144.5 -414.5q0 -28 -4 -78h-786q15 -126 85.5 -201.5t182.5 -75.5q169 0 231 144h262q-52 -171 -182 -262t-311 -91q-228 0 -375 149t-147 415zM227 1407q0 60 42.5 102.5t103.5 42.5 q60 0 101.5 -42.5t41.5 -102.5t-41.5 -101.5t-101.5 -41.5q-61 0 -103.5 41.5t-42.5 101.5zM328 641h534q-20 115 -86.5 181.5t-181.5 66.5q-107 0 -175 -67.5t-91 -180.5zM674 1407q0 60 42 102.5t101 42.5q61 0 103.5 -42.5t42.5 -102.5t-42.5 -101.5t-103.5 -41.5 q-59 0 -101 41.5t-42 101.5z" />
<glyph unicode="&#xec;" horiz-adv-x="552" d="M-106 1569h296l152 -295h-135zM143 0v1071h269v-1071h-269z" />
<glyph unicode="&#xed;" horiz-adv-x="552" d="M143 0v1071h269v-1071h-269zM217 1274l152 295h297l-314 -295h-135z" />
<glyph unicode="&#xee;" horiz-adv-x="552" d="M-96 1274l248 295h266l239 -295h-231l-141 168l-150 -168h-231zM143 0v1071h269v-1071h-269z" />
<glyph unicode="&#xef;" horiz-adv-x="552" d="M-88 1407q0 60 42 102.5t103 42.5q60 0 102 -42.5t42 -102.5t-42 -101.5t-102 -41.5q-61 0 -103 41.5t-42 101.5zM143 0v1071h269v-1071h-269zM358 1407q0 60 42.5 102.5t101.5 42.5q61 0 103 -42.5t42 -102.5t-42 -101.5t-103 -41.5q-59 0 -101.5 41.5t-42.5 101.5z" />
<glyph unicode="&#xf0;" horiz-adv-x="1214" d="M74 535q0 153 57.5 279t172 204t265.5 78q22 0 58 -4l-92 139l-299 -78v162l208 55l-133 199h312l84 -127l301 80v-164l-211 -55q115 -178 153 -240q97 -153 141 -271t44 -257q0 -132 -42.5 -240t-115.5 -178t-169 -108t-204 -38q-87 0 -165.5 21.5t-145 67.5 t-115.5 111.5t-76.5 158.5t-27.5 205zM338 537q0 -158 70.5 -250t195.5 -92t195.5 92t70.5 250q0 155 -70.5 246t-195.5 91t-195.5 -91t-70.5 -246z" />
<glyph unicode="&#xf1;" horiz-adv-x="1236" d="M143 0v1071h203l78 -139q51 83 130.5 125.5t170.5 42.5q104 0 181.5 -31.5t124 -90.5t69 -137.5t22.5 -176.5v-664h-270v590q0 47 -3.5 83.5t-16 76.5t-33 66.5t-57.5 43.5t-87 17q-72 0 -122 -32t-74.5 -87t-34.5 -112.5t-10 -125.5v-520h-271zM285 1274 q10 130 68.5 201t154.5 71q46 0 104 -26t111.5 -52t89.5 -26q71 0 92 104h115q-7 -133 -64.5 -204.5t-154.5 -71.5q-56 0 -165 52t-147 52q-35 0 -61 -27t-33 -73h-110z" />
<glyph unicode="&#xf2;" horiz-adv-x="1271" d="M74 535q0 174 77 304t203.5 195.5t280.5 65.5q155 0 282 -65.5t204 -195.5t77 -304t-77.5 -304t-204 -195t-281.5 -65q-115 0 -216.5 38.5t-178.5 109t-121.5 178t-44.5 238.5zM250 1569h297l151 -295h-135zM338 537q0 -153 80.5 -247.5t216.5 -94.5q139 0 220 94.5 t81 247.5q0 150 -81 243.5t-220 93.5q-136 0 -216.5 -93.5t-80.5 -243.5z" />
<glyph unicode="&#xf3;" horiz-adv-x="1271" d="M74 535q0 174 77 304t203.5 195.5t280.5 65.5q155 0 282 -65.5t204 -195.5t77 -304t-77.5 -304t-204 -195t-281.5 -65q-115 0 -216.5 38.5t-178.5 109t-121.5 178t-44.5 238.5zM338 537q0 -153 80.5 -247.5t216.5 -94.5q139 0 220 94.5t81 247.5q0 150 -81 243.5 t-220 93.5q-136 0 -216.5 -93.5t-80.5 -243.5zM573 1274l152 295h297l-313 -295h-136z" />
<glyph unicode="&#xf4;" horiz-adv-x="1271" d="M74 535q0 174 77 304t203.5 195.5t280.5 65.5q155 0 282 -65.5t204 -195.5t77 -304t-77.5 -304t-204 -195t-281.5 -65q-115 0 -216.5 38.5t-178.5 109t-121.5 178t-44.5 238.5zM260 1274l248 295h266l240 -295h-232l-141 168l-149 -168h-232zM338 537q0 -153 80.5 -247.5 t216.5 -94.5q139 0 220 94.5t81 247.5q0 150 -81 243.5t-220 93.5q-136 0 -216.5 -93.5t-80.5 -243.5z" />
<glyph unicode="&#xf5;" horiz-adv-x="1271" d="M74 535q0 174 77 304t203.5 195.5t280.5 65.5q155 0 282 -65.5t204 -195.5t77 -304t-77.5 -304t-204 -195t-281.5 -65q-115 0 -216.5 38.5t-178.5 109t-121.5 178t-44.5 238.5zM266 1274q10 130 68.5 201t154.5 71q46 0 104 -26t112 -52t90 -26q71 0 92 104h114 q-7 -133 -64.5 -204.5t-154.5 -71.5q-56 0 -164.5 52t-146.5 52q-35 0 -61 -27t-33 -73h-111zM338 537q0 -153 80.5 -247.5t216.5 -94.5q139 0 220 94.5t81 247.5q0 150 -81 243.5t-220 93.5q-136 0 -216.5 -93.5t-80.5 -243.5z" />
<glyph unicode="&#xf6;" horiz-adv-x="1271" d="M74 535q0 174 77 304t203.5 195.5t280.5 65.5q155 0 282 -65.5t204 -195.5t77 -304t-77.5 -304t-204 -195t-281.5 -65q-115 0 -216.5 38.5t-178.5 109t-121.5 178t-44.5 238.5zM268 1407q0 60 42.5 102.5t103.5 42.5q60 0 101.5 -42.5t41.5 -102.5t-41.5 -101.5 t-101.5 -41.5q-61 0 -103.5 41.5t-42.5 101.5zM338 537q0 -153 80.5 -247.5t216.5 -94.5q139 0 220 94.5t81 247.5q0 150 -81 243.5t-220 93.5q-136 0 -216.5 -93.5t-80.5 -243.5zM715 1407q0 60 42 102.5t101 42.5q61 0 103.5 -42.5t42.5 -102.5t-42.5 -101.5t-103.5 -41.5 q-59 0 -101 41.5t-42 101.5z" />
<glyph unicode="&#xf7;" horiz-adv-x="1585" d="M180 616v218h1225v-220zM637 238q0 60 44 104.5t105 44.5q63 0 107.5 -44.5t44.5 -104.5q0 -64 -44.5 -108t-107.5 -44q-62 0 -105.5 44t-43.5 108zM637 1214q0 63 43.5 106.5t105.5 43.5q63 0 107.5 -43.5t44.5 -106.5q0 -62 -44.5 -106.5t-107.5 -44.5q-61 0 -105 44.5 t-44 106.5z" />
<glyph unicode="&#xf8;" horiz-adv-x="1271" d="M70 0l133 158q-129 148 -129 377q0 174 77 304t203.5 195.5t280.5 65.5q172 0 305 -80l43 51h227l-139 -162q127 -149 127 -374q0 -174 -77.5 -304t-204 -195t-281.5 -65q-164 0 -297 76l-41 -47h-227zM338 537q0 -106 37 -179l409 480q-62 36 -149 36 q-136 0 -216.5 -93.5t-80.5 -243.5zM492 229q61 -34 143 -34q139 0 220 94.5t81 247.5q0 97 -35 172z" />
<glyph unicode="&#xf9;" horiz-adv-x="1189" d="M121 418v653h266v-612q0 -37 5 -70t19.5 -68t37 -59.5t60 -40.5t85.5 -16q60 0 103 23t65 62.5t31.5 80.5t9.5 88v612h266l-2 -653q0 -196 -130 -321.5t-343 -125.5t-343 125.5t-130 321.5zM209 1569h297l151 -295h-135z" />
<glyph unicode="&#xfa;" horiz-adv-x="1189" d="M121 418v653h266v-612q0 -37 5 -70t19.5 -68t37 -59.5t60 -40.5t85.5 -16q60 0 103 23t65 62.5t31.5 80.5t9.5 88v612h266l-2 -653q0 -196 -130 -321.5t-343 -125.5t-343 125.5t-130 321.5zM532 1274l152 295h297l-313 -295h-136z" />
<glyph unicode="&#xfb;" horiz-adv-x="1189" d="M121 418v653h266v-612q0 -37 5 -70t19.5 -68t37 -59.5t60 -40.5t85.5 -16q60 0 103 23t65 62.5t31.5 80.5t9.5 88v612h266l-2 -653q0 -196 -130 -321.5t-343 -125.5t-343 125.5t-130 321.5zM219 1274l248 295h266l240 -295h-232l-141 168l-149 -168h-232z" />
<glyph unicode="&#xfc;" horiz-adv-x="1189" d="M121 418v653h266v-612q0 -37 5 -70t19.5 -68t37 -59.5t60 -40.5t85.5 -16q60 0 103 23t65 62.5t31.5 80.5t9.5 88v612h266l-2 -653q0 -196 -130 -321.5t-343 -125.5t-343 125.5t-130 321.5zM227 1407q0 60 42.5 102.5t103.5 42.5q60 0 101.5 -42.5t41.5 -102.5 t-41.5 -101.5t-101.5 -41.5q-61 0 -103.5 41.5t-42.5 101.5zM674 1407q0 60 42 102.5t101 42.5q61 0 103.5 -42.5t42.5 -102.5t-42.5 -101.5t-103.5 -41.5q-59 0 -101 41.5t-42 101.5z" />
<glyph unicode="&#xfd;" horiz-adv-x="1177" d="M14 1071h271l307 -694l309 694h270l-702 -1569h-274l262 586zM528 1274l152 295h297l-313 -295h-136z" />
<glyph unicode="&#xfe;" horiz-adv-x="1280" d="M150 -498v2067h268v-615q45 69 127 107.5t174 38.5q151 0 265 -79t171 -206.5t57 -282.5q0 -113 -34 -214.5t-95.5 -178.5t-155 -122.5t-206.5 -45.5q-87 0 -169 36t-130 99h-4v-604h-268zM414 535q0 -145 68.5 -241.5t197.5 -96.5q125 0 193.5 97t68.5 241 q0 146 -68.5 242.5t-193.5 96.5q-129 0 -197.5 -96t-68.5 -243z" />
<glyph unicode="&#xff;" horiz-adv-x="1177" d="M14 1071h271l307 -694l309 694h270l-702 -1569h-274l262 586zM223 1407q0 60 42.5 102.5t103.5 42.5q60 0 101.5 -42.5t41.5 -102.5t-41.5 -101.5t-101.5 -41.5q-61 0 -103.5 41.5t-42.5 101.5zM670 1407q0 60 42 102.5t101 42.5q61 0 103 -42.5t42 -102.5t-42 -101.5 t-103 -41.5q-59 0 -101 41.5t-42 101.5z" />
<glyph unicode="&#x131;" horiz-adv-x="552" d="M143 0v1071h269v-1071h-269z" />
<glyph unicode="&#x13f;" horiz-adv-x="1032" d="M154 0v1458h274v-1208h516v-250h-790zM680 770q0 60 42 102.5t101 42.5q61 0 103.5 -42.5t42.5 -102.5t-42.5 -101.5t-103.5 -41.5q-59 0 -101 41.5t-42 101.5z" />
<glyph unicode="&#x140;" horiz-adv-x="868" d="M150 0v1569h274v-1569h-274zM563 778q0 60 42.5 103t103.5 43q60 0 101.5 -43t41.5 -103t-41.5 -101.5t-101.5 -41.5q-61 0 -103.5 41.5t-42.5 101.5z" />
<glyph unicode="&#x152;" horiz-adv-x="1978" d="M84 729q0 143 42 266.5t115.5 213t171 153.5t209 95.5t228.5 31.5q111 0 223 -31h782v-244h-536v-337h491v-240h-491v-393h536v-244l-784 2q-97 -31 -221 -31q-117 0 -228.5 31.5t-209 95t-171 152.5t-115.5 212.5t-42 266.5zM362 729q0 -120 42.5 -218.5t112.5 -160.5 t156 -95.5t177 -33.5q105 0 197 47v922q-91 49 -197 49q-91 0 -177 -33.5t-156 -95.5t-112.5 -161t-42.5 -220z" />
<glyph unicode="&#x153;" horiz-adv-x="2045" d="M74 535q0 174 77 304t203.5 195.5t280.5 65.5q127 0 237.5 -46t188.5 -132q70 87 172 132.5t223 45.5q232 0 376 -150.5t144 -412.5q0 -28 -4 -78h-782q14 -125 84 -200t182 -75q169 0 232 142h260q-52 -170 -181.5 -260.5t-310.5 -90.5q-249 0 -395 172 q-78 -86 -188 -131t-238 -45q-115 0 -216.5 38.5t-178.5 109t-121.5 178t-44.5 238.5zM338 537q0 -153 80.5 -247.5t216.5 -94.5q139 0 220 94.5t81 247.5q0 150 -81 243.5t-220 93.5q-136 0 -216.5 -93.5t-80.5 -243.5zM1192 643h530q-18 114 -84.5 180t-181.5 66 q-107 0 -175 -66.5t-89 -179.5z" />
<glyph unicode="&#x178;" horiz-adv-x="1327" d="M4 1458h315l345 -536l344 536h315l-522 -794v-664h-275v664zM297 1774q0 60 42 102.5t103 42.5q60 0 102 -42.5t42 -102.5t-42 -102t-102 -42q-61 0 -103 42t-42 102zM743 1774q0 60 42.5 102.5t101.5 42.5q61 0 103 -42.5t42 -102.5t-42 -102t-103 -42q-59 0 -101.5 42 t-42.5 102z" />
<glyph unicode="&#x2c6;" horiz-adv-x="1228" d="M240 1219l247 294h267l239 -294h-231l-141 167l-150 -167h-231z" />
<glyph unicode="&#x2c7;" horiz-adv-x="1228" d="M238 1513h231l149 -167l142 167h231l-239 -294h-267z" />
<glyph unicode="&#x2d8;" horiz-adv-x="1228" d="M246 1503h141q38 -143 227 -143q191 0 226 143h143q-16 -141 -108.5 -221t-260.5 -80t-260 80t-108 221z" />
<glyph unicode="&#x2d9;" horiz-adv-x="1228" d="M471 1346q0 61 42.5 103t102.5 42t102 -42t42 -103q0 -60 -42 -102t-102 -42t-102.5 42t-42.5 102z" />
<glyph unicode="&#x2da;" horiz-adv-x="1228" d="M393 1384q0 90 65.5 156t155.5 66q92 0 157 -66t65 -156q0 -91 -65 -156t-157 -65q-91 0 -156 65t-65 156zM514 1384q0 -43 28.5 -71.5t71.5 -28.5q42 0 71.5 29t29.5 71q0 41 -30 71t-71 30q-42 0 -71 -29.5t-29 -71.5z" />
<glyph unicode="&#x2db;" horiz-adv-x="1228" d="M508 -143q0 103 61 176h97q-17 -49 -17 -90q0 -65 32 -97t87 -32q29 0 74 10v-137q-66 -27 -127 -27q-90 0 -148.5 50t-58.5 147z" />
<glyph unicode="&#x2dc;" horiz-adv-x="1228" d="M246 1219q10 130 68.5 201t154.5 71q46 0 104 -26.5t111.5 -52.5t89.5 -26q71 0 92 105h115q-7 -133 -64.5 -205t-154.5 -72q-45 0 -105.5 26t-116 52.5t-89.5 26.5q-35 0 -61.5 -27t-33.5 -73h-110z" />
<glyph unicode="&#x2dd;" horiz-adv-x="1228" d="M354 1219l152 294h297l-314 -294h-135zM729 1219l152 294h297l-314 -294h-135z" />
<glyph unicode="&#x5b0;" d="M528 -195h172v-170h-172v170zM528 -535h172v-170h-172v170z" />
<glyph unicode="&#x5b1;" d="M145 -195h172v-170h-172v170zM336 -535h172v-170h-172v170zM528 -195h172v-170h-172v170zM911 -195h172v-170h-172v170zM911 -535h172v-170h-172v170z" />
<glyph unicode="&#x5b2;" d="M117 -195h637v-149h-637v149zM942 -195h172v-170h-172v170zM942 -535h172v-170h-172v170z" />
<glyph unicode="&#x5b3;" d="M115 -195h637v-141h-256l24 -319h-172l25 319h-258v141zM942 -195h172v-170h-172v170zM942 -535h172v-170h-172v170z" />
<glyph unicode="&#x5b4;" d="M528 -195h172v-170h-172v170z" />
<glyph unicode="&#x5b5;" d="M338 -195h172v-170h-172v170zM721 -195h172v-170h-172v170z" />
<glyph unicode="&#x5b6;" d="M336 -195h172v-170h-172v170zM526 -535h172v-170h-172v170zM719 -195h172v-170h-172v170z" />
<glyph unicode="&#x5b7;" d="M295 -195h637v-149h-637v149z" />
<glyph unicode="&#x5b8;" d="M295 -195h637v-141h-256l24 -319h-172l25 319h-258v141z" />
<glyph unicode="&#x5b9;" d="M528 1319v170h172v-170h-172z" />
<glyph unicode="&#x5ba;" d="M528 1319v170h172v-170h-172z" />
<glyph unicode="&#x5bb;" d="M516 -195h172v-170h-172v170zM750 -406h172v-169h-172v169zM983 -616h172v-170h-172v170z" />
<glyph unicode="&#x5bc;" d="M528 477v170h172v-170h-172z" />
<glyph unicode="&#x5be;" horiz-adv-x="919" d="M147 870v230h625v-230h-625z" />
<glyph unicode="&#x5c1;" d="M528 1319v170h172v-170h-172z" />
<glyph unicode="&#x5c2;" d="M528 1319v170h172v-170h-172z" />
<glyph unicode="&#x5c7;" d="M295 -195h637v-141h-256l24 -319h-172l25 319h-258v141z" />
<glyph unicode="&#x5d0;" horiz-adv-x="1261" d="M66 1094h319l324 -437q29 11 50.5 25.5t36.5 34t25 36.5t17 44.5t10.5 45t9 51t8.5 50.5l27 150h285l-35 -172q-14 -72 -27.5 -122t-37.5 -101.5t-56 -86t-81 -64t-114 -48.5l369 -500h-319l-349 469q-23 -12 -41 -27t-31 -35.5t-21 -35.5t-15 -42t-9.5 -39.5t-7.5 -44 t-6 -40.5l-37 -205h-282l43 227q16 84 34 140.5t49.5 111.5t81 92.5t120.5 61.5z" />
<glyph unicode="&#x5d1;" horiz-adv-x="1144" d="M92 0v227h561v447q0 192 -176 192h-375v228h443q126 0 213.5 -51.5t128.5 -143.5q39 -83 39 -233v-439h178v-227h-1012z" />
<glyph unicode="&#x5d2;" horiz-adv-x="825" d="M74 -45v266l325 178q-2 47 -2 160v309h-268v226h539v-543q0 -105 1 -146t10 -113t28 -145l41 -147h-256q-27 74 -48 156h-6z" />
<glyph unicode="&#x5d3;" horiz-adv-x="1144" d="M57 866v228h1016v-228h-235v-866h-273v866h-508z" />
<glyph unicode="&#x5d4;" horiz-adv-x="1230" d="M125 0v565h272v-565h-272zM125 866v228h608q122 0 209 -49t129 -136q43 -88 43 -243v-666h-274v674q0 94 -44 143t-130 49h-541z" />
<glyph unicode="&#x5d5;" horiz-adv-x="628" d="M100 866v228h402v-1094h-277v866h-125z" />
<glyph unicode="&#x5d6;" horiz-adv-x="802" d="M80 866v228h643v-228h-137q-53 0 -88 -18.5t-51.5 -48t-20.5 -70.5t1 -81.5t17 -86.5q46 -176 193 -561h-303q-81 237 -113 391q-40 177 -27 285.5t76 189.5h-190z" />
<glyph unicode="&#x5d7;" horiz-adv-x="1282" d="M141 0v1094h639q123 0 209.5 -49t128.5 -136q45 -85 45 -243v-666h-272v674q0 94 -44 143t-130 49h-303v-866h-273z" />
<glyph unicode="&#x5d8;" horiz-adv-x="1280" d="M117 543v551h272v-551q0 -152 67.5 -245t196.5 -93t197 93t68 245q0 64 -2 103.5t-8 81.5t-18 65.5t-32.5 44t-51 28.5t-73.5 8q-62 0 -155 -26v217q121 41 233 41q196 0 289 -119q51 -70 70.5 -172.5t19.5 -271.5q0 -258 -149 -415t-388 -157t-387.5 157t-148.5 415z " />
<glyph unicode="&#x5d9;" horiz-adv-x="610" d="M88 866v228h397v-711h-272v483h-125z" />
<glyph unicode="&#x5da;" horiz-adv-x="1015" d="M74 864v230h432q191 0 282 -88q105 -98 105 -304v-966h-272v880q0 138 -41 193t-164 55h-342z" />
<glyph unicode="&#x5db;" horiz-adv-x="1019" d="M88 0v227h262q157 0 236.5 82.5t79.5 239.5q0 155 -77 236t-233 81h-260v228h262q584 0 584 -545q0 -549 -588 -549h-266z" />
<glyph unicode="&#x5dc;" horiz-adv-x="1003" d="M68 866v596h270v-368h580v-213l-328 -881h-289l326 866h-559z" />
<glyph unicode="&#x5dd;" horiz-adv-x="1269" d="M133 0v1094h647q123 0 209.5 -49t128.5 -136q43 -81 43 -243v-666h-1028zM406 227h485v447q0 94 -44 143t-130 49h-311v-639z" />
<glyph unicode="&#x5de;" horiz-adv-x="1380" d="M61 1094h316l94 -164q65 92 154.5 138t216.5 46q195 0 326.5 -143.5t134.5 -372.5q6 -356 -173 -504q-127 -114 -366 -114q-28 0 -115 6v223q50 -4 70 -4q164 0 238.5 80.5t74.5 281.5q0 138 -61 231t-172 93q-130 0 -201 -113q-42 -68 -66 -160.5t-45 -242.5 q-2 -14 -8 -64.5t-15 -131t-20 -179.5h-276q35 367 96 723z" />
<glyph unicode="&#x5df;" horiz-adv-x="634" d="M88 864v230h410v-1358h-277v1128h-133z" />
<glyph unicode="&#x5e0;" horiz-adv-x="751" d="M86 -4v225h135q133 0 133 150v495h-233v228h508v-725q0 -135 -35 -207q-36 -77 -112.5 -121.5t-184.5 -44.5h-211z" />
<glyph unicode="&#x5e1;" horiz-adv-x="1275" d="M121 543v551h530q239 0 381 -123q162 -140 162 -428q0 -258 -149 -415t-388 -157t-387.5 157t-148.5 415zM393 543q0 -152 67.5 -245t196.5 -93t197 93t68 245q0 166 -76 250q-67 73 -197 73h-256v-323z" />
<glyph unicode="&#x5e2;" horiz-adv-x="1257" d="M57 1094h297l357 -834q47 24 75 76q53 101 66 457q6 98 6 301h281v-140q-4 -238 -19 -389q-18 -152 -60.5 -255.5t-121.5 -174.5t-198 -103t-289 -32h-338v227h131q135 0 194 4z" />
<glyph unicode="&#x5e3;" horiz-adv-x="1171" d="M102 719v375h564q125 0 214.5 -53t133.5 -146q39 -80 39 -233v-926h-273v936q0 93 -46.5 142.5t-135.5 49.5h-223v-145q0 -84 36.5 -120t104.5 -34v-207q-25 -4 -74 -4q-155 0 -247.5 91t-92.5 274z" />
<glyph unicode="&#x5e4;" horiz-adv-x="1204" d="M78 711q0 186 134.5 299.5t360.5 113.5q267 0 410 -141t143 -408q0 -285 -164 -430t-483 -145h-321v225h293q221 0 316 80t95 273q0 159 -74.5 238t-216.5 79q-109 0 -171 -50t-62 -134q0 -126 145 -150v-217q-45 0 -94 9t-106.5 35t-101.5 65t-73.5 106t-29.5 152z" />
<glyph unicode="&#x5e5;" horiz-adv-x="1122" d="M31 1094h291l225 -473q30 11 52 23t38.5 31t26.5 32t19.5 41.5t13 43t12 53.5t12.5 56l45 193h285l-52 -215q-19 -81 -37 -134.5t-48 -106t-71 -85.5t-101.5 -59t-143.5 -41l111 -717h-273l-123 774z" />
<glyph unicode="&#x5e6;" horiz-adv-x="1150" d="M37 1094h311l307 -418q20 11 36 25t27.5 34t19 34t14 41.5t9.5 40t8 46t7 43.5l25 152h282l-32 -174q-16 -84 -34 -141t-49 -111.5t-78.5 -92t-115.5 -63.5l230 -309v-201h-898v227h566z" />
<glyph unicode="&#x5e7;" horiz-adv-x="1257" d="M131 864v230h1040v-224l-307 -872h-284l303 866h-752zM139 -264v827h273v-827h-273z" />
<glyph unicode="&#x5e8;" horiz-adv-x="1028" d="M76 866v228h454q121 0 207.5 -49t128.5 -136q43 -88 43 -243v-666h-272v674q0 192 -176 192h-385z" />
<glyph unicode="&#x5e9;" horiz-adv-x="1540" d="M117 645v449h258v-467q0 -47 10 -105q103 26 156.5 61t77.5 92.5t24 155.5v263h252v-263q0 -103 -24.5 -182.5t-63 -129.5t-99 -85.5t-119 -53.5t-136.5 -32q43 -56 88 -86q91 -67 229 -67q136 0 231 67q162 113 162 365v467h260v-449q0 -369 -229 -545 q-167 -129 -426 -129q-260 0 -426 131q-225 173 -225 543z" />
<glyph unicode="&#x5ea;" horiz-adv-x="1425" d="M84 866v228h842q123 0 209.5 -49t130.5 -136q41 -80 41 -241v-668h-273v674q0 192 -174 192h-258v-501q0 -88 -20.5 -155.5t-53.5 -109t-80 -68t-95 -36.5t-103 -10q-74 0 -160 22v205q75 -6 76 -6q39 0 66 7.5t50.5 28t34.5 61t11 102.5v460h-244z" />
<glyph unicode="&#x5f3;" horiz-adv-x="694" d="M113 868l174 475h295l-308 -475h-161z" />
<glyph unicode="&#x5f4;" horiz-adv-x="1118" d="M113 868l174 475h295l-308 -475h-161zM537 868l174 475h295l-308 -475h-161z" />
<glyph unicode="&#x2000;" horiz-adv-x="1014" />
<glyph unicode="&#x2001;" horiz-adv-x="2028" />
<glyph unicode="&#x2002;" horiz-adv-x="1014" />
<glyph unicode="&#x2003;" horiz-adv-x="2028" />
<glyph unicode="&#x2004;" horiz-adv-x="676" />
<glyph unicode="&#x2005;" horiz-adv-x="507" />
<glyph unicode="&#x2006;" horiz-adv-x="338" />
<glyph unicode="&#x2007;" horiz-adv-x="338" />
<glyph unicode="&#x2008;" horiz-adv-x="253" />
<glyph unicode="&#x2009;" horiz-adv-x="405" />
<glyph unicode="&#x200a;" horiz-adv-x="112" />
<glyph unicode="&#x2010;" horiz-adv-x="1071" d="M164 528v213h743v-213h-743z" />
<glyph unicode="&#x2011;" horiz-adv-x="1071" d="M164 528v213h743v-213h-743z" />
<glyph unicode="&#x2012;" horiz-adv-x="1071" d="M164 528v213h743v-213h-743z" />
<glyph unicode="&#x2013;" horiz-adv-x="1542" d="M164 528v213h1214v-213h-1214z" />
<glyph unicode="&#x2014;" horiz-adv-x="2433" d="M164 528v213h2105v-213h-2105z" />
<glyph unicode="&#x2018;" horiz-adv-x="694" d="M113 983l305 475h164l-172 -475h-297z" />
<glyph unicode="&#x2019;" horiz-adv-x="743" d="M113 983l198 475h320l-369 -475h-149z" />
<glyph unicode="&#x201a;" horiz-adv-x="677" d="M119 -139l174 475h295l-307 -475h-162z" />
<glyph unicode="&#x201c;" horiz-adv-x="1118" d="M113 983l305 475h164l-172 -475h-297zM537 983l307 475h162l-172 -475h-297z" />
<glyph unicode="&#x201d;" horiz-adv-x="1118" d="M113 983l174 475h295l-308 -475h-161zM537 983l174 475h295l-308 -475h-161z" />
<glyph unicode="&#x201e;" horiz-adv-x="1118" d="M113 -139l170 475h299l-308 -475h-161zM537 -139l170 475h299l-308 -475h-161z" />
<glyph unicode="&#x2020;" horiz-adv-x="1130" d="M127 821v189h334v493h209v-493h334v-189h-334v-1100h-209v1100h-334z" />
<glyph unicode="&#x2021;" horiz-adv-x="1214" d="M127 217v189h334v415h-334v189h334v493h209v-493h334v-189h-334v-415h334v-189h-334v-496h-209v496h-334z" />
<glyph unicode="&#x2022;" horiz-adv-x="972" d="M221 596q0 109 78 186.5t188 77.5q108 0 186.5 -78t78.5 -186q0 -109 -78.5 -186.5t-186.5 -77.5q-110 0 -188 77t-78 187z" />
<glyph unicode="&#x2026;" horiz-adv-x="1794" d="M164 133q0 66 48 113t114 47t113.5 -47t47.5 -113t-47.5 -114t-113.5 -48t-114 48t-48 114zM735 133q0 66 48 113t114 47t114 -47t48 -113t-48 -114t-114 -48t-114 48t-48 114zM1307 133q0 66 47.5 113t113.5 47t114 -47t48 -113t-48 -114t-114 -48t-113.5 48t-47.5 114z " />
<glyph unicode="&#x202f;" horiz-adv-x="405" />
<glyph unicode="&#x2030;" horiz-adv-x="2254" d="M160 1217q0 113 79 191.5t191 78.5t191 -78.5t79 -191.5q0 -111 -79 -191t-191 -80t-191 80t-79 191zM211 0l1001 1458h160l-995 -1458h-166zM299 1217q0 -56 38 -95t93 -39q56 0 93.5 38.5t37.5 95.5t-38 96t-93 39t-93 -39t-38 -96zM889 242q0 112 78.5 191t191.5 79 t192 -79t79 -191q0 -111 -79.5 -191t-191.5 -80t-191 80t-79 191zM1028 242q0 -56 38 -94.5t93 -38.5q56 0 93.5 38t37.5 95t-38 96t-93 39t-93 -39t-38 -96zM1554 242q0 112 79 191t192 79t191.5 -79t78.5 -191q0 -111 -79 -191t-191 -80t-191.5 80t-79.5 191zM1694 242 q0 -56 38 -94.5t93 -38.5q56 0 93.5 38t37.5 95t-38 96t-93 39t-93 -39t-38 -96z" />
<glyph unicode="&#x2039;" horiz-adv-x="921" d="M164 537l317 438h277l-312 -438l312 -439h-277z" />
<glyph unicode="&#x203a;" horiz-adv-x="921" d="M164 98l313 439l-313 438h278l316 -438l-316 -439h-278z" />
<glyph unicode="&#x2044;" horiz-adv-x="1239" d="M8 0l1002 1458h221l-995 -1458h-228z" />
<glyph unicode="&#x205f;" horiz-adv-x="507" />
<glyph unicode="&#x20aa;" horiz-adv-x="2326" d="M143 0v1094h635q123 0 209.5 -49t128.5 -136q45 -85 45 -243v-39q0 -47 10 -105q151 39 205 102.5t54 206.5v263h251v-263q0 -103 -24.5 -182.5t-63 -129.5t-99 -85.5t-119 -53.5t-136.5 -32q43 -56 88 -86q91 -67 229 -67q137 0 232 67q162 113 162 365v467h260v-449 q0 -369 -230 -545q-167 -129 -426 -129q-260 0 -426 131q-219 170 -225 525v47q0 94 -44 143t-130 49h-317v-866h-269z" />
<glyph unicode="&#x20ac;" horiz-adv-x="1579" d="M70 469l65 172h133q-4 58 -4 90q0 30 4 92h-198l63 172h172q53 156 166.5 270t257 170t301.5 56q255 0 412 -121l-94 -246q-135 117 -318 117q-128 0 -243.5 -64t-180.5 -182h690l-65 -172h-682q-6 -43 -6 -92q0 -47 6 -90h610l-65 -172h-488q65 -118 180.5 -182 t243.5 -64q94 0 178 27t138 69v-276q-122 -70 -316 -70q-118 0 -230.5 32.5t-209 94t-171.5 156.5t-114 213h-235z" />
<glyph unicode="&#x2122;" horiz-adv-x="2156" d="M205 1319v139h561v-139h-201v-694h-157v694h-203zM860 625l88 833h207l250 -612l252 612h205l88 -833h-158l-63 614l-263 -631h-123l-260 631l-65 -614h-158z" />
<glyph unicode="&#x2202;" horiz-adv-x="1368" />
<glyph unicode="&#x220f;" horiz-adv-x="1607" d="M156 1223v235h1296v-235h-125v-1223h-256v1223h-530v-1223h-265v1223h-120z" />
<glyph unicode="&#x2211;" horiz-adv-x="1380" d="M168 0v231l516 490l-516 510v227h1069v-235h-690l504 -504l-512 -483h696v-236h-1067z" />
<glyph unicode="&#x221a;" horiz-adv-x="1333" d="M102 1034h281l203 -612l510 1542h886v-223h-690l-594 -1753h-221z" />
<glyph unicode="&#x221e;" horiz-adv-x="1611" d="M160 725q0 165 103.5 262.5t256.5 97.5q88 0 158 -35.5t129 -119.5q55 73 131.5 114t153.5 41q154 0 257 -97.5t103 -262.5q0 -167 -103 -266t-257 -99q-81 0 -155 40t-130 118q-116 -158 -287 -158q-153 0 -256.5 99t-103.5 266zM360 725q0 -77 46 -126.5t122 -49.5 q103 0 181 174q-33 76 -80 126t-101 50q-75 0 -121.5 -49.5t-46.5 -124.5zM903 723q78 -174 180 -174q75 0 121.5 49.5t46.5 126.5q0 74 -47 124t-121 50q-100 0 -180 -176z" />
<glyph unicode="&#x222b;" horiz-adv-x="948" d="M164 80q60 -17 100 -17q123 0 123 130v1126q0 154 91 244t243 90q90 0 158 -23v-215q-60 17 -101 17q-123 0 -123 -129v-1127q0 -155 -90 -244.5t-243 -89.5q-88 0 -158 23v215z" />
<glyph unicode="&#x2248;" horiz-adv-x="1519" d="M205 324v229q92 76 164.5 110.5t144.5 34.5q93 0 266 -80q92 -41 147 -59t103 -18q63 0 127.5 34.5t157.5 114.5v-225q-137 -143 -295 -143q-117 0 -279 75q-91 42 -146.5 61t-102.5 19q-62 0 -125.5 -35t-161.5 -118zM205 782v232q91 76 163.5 109.5t145.5 33.5 q97 0 266 -78q88 -41 144.5 -59.5t105.5 -18.5q63 0 128 34.5t157 115.5v-227q-144 -144 -295 -144q-115 0 -279 76q-89 43 -145.5 62t-103.5 18q-63 -1 -126.5 -36.5t-160.5 -117.5z" />
<glyph unicode="&#x2260;" horiz-adv-x="1470" d="M188 379v217h347l184 258h-531v217h684l177 246h217l-176 -246h192v-217h-346l-186 -258h532v-217h-686l-176 -246h-215l176 246h-193z" />
<glyph unicode="&#x2264;" horiz-adv-x="1198" d="M205 127v201h788v-201h-788zM205 821v189l788 350v-230l-514 -210l514 -215v-230z" />
<glyph unicode="&#x2265;" horiz-adv-x="1198" d="M205 127v201h788v-201h-788zM205 475v230l514 215l-514 210v230l788 -350v-189z" />
<glyph unicode="&#x25ca;" horiz-adv-x="1478" d="M197 731l434 748h217l438 -748l-438 -751h-217zM455 731l284 -498l287 498l-287 496z" />
<glyph unicode="&#x25fc;" horiz-adv-x="1075" d="M0 0v1075h1075v-1075h-1075z" />
<glyph unicode="&#xfb00;" horiz-adv-x="1492" d="M84 850v221h125v186q0 153 93.5 245.5t252.5 92.5q98 0 190 -28v-215q-73 24 -135 24q-63 0 -99 -35.5t-36 -99.5v-170h432v186q0 153 93.5 245.5t252.5 92.5q99 0 191 -28v-215q-73 24 -135 24q-63 0 -99 -35.5t-36 -99.5v-170h262v-221h-262v-850h-267v850h-432v-850 h-266v850h-125z" />
<glyph unicode="&#xfb03;" horiz-adv-x="2052" d="M84 850v221h125v186q0 153 93.5 245.5t252.5 92.5q98 0 190 -28v-215q-73 24 -135 24q-63 0 -99 -35.5t-36 -99.5v-170h434v186q0 153 93.5 245.5t252.5 92.5q99 0 191 -28v-215q-73 24 -135 24q-63 0 -99 -35.5t-36 -99.5v-170h733v-1071h-269v850h-464v-850h-267v850 h-434v-850h-266v850h-125zM1636 1245v232h277v-232h-277z" />
<glyph unicode="&#xfb04;" horiz-adv-x="2058" d="M84 850v221h125v186q0 153 93.5 245.5t252.5 92.5q98 0 190 -28v-215q-73 24 -135 24q-63 0 -99 -35.5t-36 -99.5v-170h432v186q0 153 93.5 245.5t252.5 92.5q99 0 191 -28v-215q-73 24 -135 24q-63 0 -99 -35.5t-36 -99.5v-170h458v498h275v-1569h-275v850h-458v-850 h-267v850h-432v-850h-266v850h-125z" />
<glyph unicode="&#xfb2a;" horiz-adv-x="1546" d="M117 645v449h258v-467q0 -47 10 -105q103 26 156.5 61t77.5 92.5t24 155.5v263h252v-263q0 -103 -24.5 -182.5t-63 -129.5t-99 -85.5t-119 -53.5t-136.5 -32q43 -56 88 -86q91 -67 229 -67q136 0 231 67q162 113 162 365v467h260v-449q0 -369 -229 -545 q-167 -129 -426 -129q-260 0 -426 131q-225 173 -225 543zM1212 1239v170h172v-170h-172z" />
<glyph unicode="&#xfb2b;" horiz-adv-x="1546" d="M117 645v449h258v-467q0 -47 10 -105q103 26 156.5 61t77.5 92.5t24 155.5v263h252v-263q0 -103 -24.5 -182.5t-63 -129.5t-99 -85.5t-119 -53.5t-136.5 -32q43 -56 88 -86q91 -67 229 -67q136 0 231 67q162 113 162 365v467h260v-449q0 -369 -229 -545 q-167 -129 -426 -129q-260 0 -426 131q-225 173 -225 543zM162 1239v170h172v-170h-172z" />
<glyph unicode="&#xfb2c;" horiz-adv-x="1546" d="M117 645v449h258v-467q0 -47 10 -105q103 26 156.5 61t77.5 92.5t24 155.5v263h252v-263q0 -103 -24.5 -182.5t-63 -129.5t-99 -85.5t-119 -53.5t-136.5 -32q43 -56 88 -86q91 -67 229 -67q136 0 231 67q162 113 162 365v467h260v-449q0 -369 -229 -545 q-167 -129 -426 -129q-260 0 -426 131q-225 173 -225 543zM874 408v159h168v-159h-168zM1212 1239v170h172v-170h-172z" />
<glyph unicode="&#xfb2d;" horiz-adv-x="1546" d="M117 645v449h258v-467q0 -47 10 -105q103 26 156.5 61t77.5 92.5t24 155.5v263h252v-263q0 -103 -24.5 -182.5t-63 -129.5t-99 -85.5t-119 -53.5t-136.5 -32q43 -56 88 -86q91 -67 229 -67q136 0 231 67q162 113 162 365v467h260v-449q0 -369 -229 -545 q-167 -129 -426 -129q-260 0 -426 131q-225 173 -225 543zM162 1239v170h172v-170h-172zM874 408v159h168v-159h-168z" />
<glyph unicode="&#xfb2e;" horiz-adv-x="1253" d="M61 1094h320l324 -437q29 11 50.5 25.5t36.5 34t25 36.5t17 44.5t10.5 45t9 51t8.5 50.5l27 150h285l-35 -172q-14 -72 -27.5 -122t-37.5 -101.5t-56 -86t-81 -64t-114 -48.5l369 -500h-320l-348 469q-23 -12 -41 -27t-31 -35.5t-21 -35.5t-15 -42t-9.5 -39.5t-7.5 -44 t-6 -40.5l-37 -205h-282l43 227q16 84 34 140.5t49 111.5t80.5 92.5t120.5 61.5zM295 -195h637v-149h-637v149z" />
<glyph unicode="&#xfb2f;" horiz-adv-x="1253" d="M61 1094h320l324 -437q29 11 50.5 25.5t36.5 34t25 36.5t17 44.5t10.5 45t9 51t8.5 50.5l27 150h285l-35 -172q-14 -72 -27.5 -122t-37.5 -101.5t-56 -86t-81 -64t-114 -48.5l369 -500h-320l-348 469q-23 -12 -41 -27t-31 -35.5t-21 -35.5t-15 -42t-9.5 -39.5t-7.5 -44 t-6 -40.5l-37 -205h-282l43 227q16 84 34 140.5t49 111.5t80.5 92.5t120.5 61.5zM295 -195h637v-141h-256l24 -319h-172l25 319h-258v141z" />
<glyph unicode="&#xfb30;" horiz-adv-x="1253" d="M61 1094h320l324 -437q29 11 50.5 25.5t36.5 34t25 36.5t17 44.5t10.5 45t9 51t8.5 50.5l27 150h285l-35 -172q-14 -72 -27.5 -122t-37.5 -101.5t-56 -86t-81 -64t-114 -48.5l369 -500h-320l-348 469q-23 -12 -41 -27t-31 -35.5t-21 -35.5t-15 -42t-9.5 -39.5t-7.5 -44 t-6 -40.5l-37 -205h-282l43 227q16 84 34 140.5t49 111.5t80.5 92.5t120.5 61.5zM588 934v160h174v-160h-174z" />
<glyph unicode="&#xfb31;" horiz-adv-x="1153" d="M92 0v227h561v447q0 192 -176 192h-375v228h443q126 0 213.5 -51.5t128.5 -143.5q39 -83 39 -233v-439h178v-227h-1012zM240 467v170h172v-170h-172z" />
<glyph unicode="&#xfb32;" horiz-adv-x="825" d="M72 496v170h172v-170h-172zM74 -45v266l325 178q-2 47 -2 160v309h-268v226h539v-543q0 -105 1 -146t10 -113t28 -145l41 -147h-256q-27 74 -48 156h-6z" />
<glyph unicode="&#xfb33;" horiz-adv-x="1144" d="M57 866v228h1016v-228h-235v-866h-273v866h-508zM215 467v170h172v-170h-172z" />
<glyph unicode="&#xfb34;" horiz-adv-x="1230" d="M125 0v565h272v-565h-272zM125 866v228h608q122 0 209 -49t129 -136q43 -88 43 -243v-666h-274v674q0 94 -44 143t-130 49h-541zM526 520v170h172v-170h-172z" />
<glyph unicode="&#xfb35;" horiz-adv-x="628" d="M-61 467v170h172v-170h-172zM100 866v228h402v-1094h-277v866h-125z" />
<glyph unicode="&#xfb36;" horiz-adv-x="815" d="M80 866v228h643v-228h-137q-53 0 -88 -18.5t-51.5 -48t-20.5 -70.5t1 -81.5t17 -86.5q46 -176 193 -561h-303q-81 237 -113 391q-40 177 -27 285.5t76 189.5h-190zM551 541v170h172v-170h-172z" />
<glyph unicode="&#xfb38;" horiz-adv-x="1280" d="M117 543v551h272v-551q0 -152 67.5 -245t196.5 -93t197 93t68 245q0 64 -2 103.5t-8 81.5t-18 65.5t-32.5 44t-51 28.5t-73.5 8q-62 0 -155 -26v217q121 41 233 41q196 0 289 -119q51 -70 70.5 -172.5t19.5 -271.5q0 -258 -149 -415t-388 -157t-387.5 157t-148.5 415z M555 467v170h172v-170h-172z" />
<glyph unicode="&#xfb39;" horiz-adv-x="702" d="M-20 524v170h172v-170h-172zM180 866v228h398v-711h-273v483h-125z" />
<glyph unicode="&#xfb3a;" horiz-adv-x="1019" d="M74 864v230h432q191 0 282 -88q105 -98 105 -304v-966h-272v880q0 138 -41 193t-164 55h-342zM209 444v158h186v-158h-186z" />
<glyph unicode="&#xfb3b;" horiz-adv-x="1015" d="M88 0v227h262q157 0 236.5 82.5t79.5 239.5q0 155 -77 236t-233 81h-260v228h262q584 0 584 -545q0 -549 -588 -549h-266zM215 467v170h172v-170h-172z" />
<glyph unicode="&#xfb3c;" horiz-adv-x="1003" d="M68 866v596h270v-368h580v-213l-328 -881h-289l326 866h-559zM154 526v170h172v-170h-172z" />
<glyph unicode="&#xfb3e;" horiz-adv-x="1380" d="M61 1094h316l96 -168q49 72 121 121q100 65 248 65q195 0 326.5 -143t134.5 -371q6 -356 -173 -504q-127 -114 -366 -114q-28 0 -115 6v223q50 -4 70 -4q164 0 238.5 80.5t74.5 281.5q0 138 -61 231t-172 93q-130 0 -201 -113q-36 -57 -60.5 -146.5t-34.5 -154 t-30 -228.5q-4 -30 -6 -46l-23 -203h-276q35 367 96 723zM680 449v169h172v-169h-172z" />
<glyph unicode="&#xfb40;" horiz-adv-x="751" d="M35 469v170h172v-170h-172zM86 -4v225h135q133 0 133 150v495h-233v228h508v-725q0 -135 -35 -207q-36 -77 -112.5 -121.5t-184.5 -44.5h-211z" />
<glyph unicode="&#xfb41;" horiz-adv-x="1271" d="M121 543v551h530q239 0 381 -123q162 -140 162 -428q0 -258 -149 -415t-388 -157t-387.5 157t-148.5 415zM393 543q0 -152 67.5 -245t196.5 -93t197 93t68 245q0 166 -76 250q-67 73 -197 73h-256v-323zM565 469v170h172v-170h-172z" />
<glyph unicode="&#xfb43;" horiz-adv-x="1181" d="M102 719v375h566q125 0 214.5 -53t133.5 -146q39 -80 39 -233v-926h-275v936q0 93 -46.5 142.5t-135.5 49.5h-227v-147q0 -85 37.5 -120.5t107.5 -33.5v-205q-119 -16 -210.5 15.5t-147.5 119.5t-56 226z" />
<glyph unicode="&#xfb44;" horiz-adv-x="1204" d="M78 711q0 186 134.5 299.5t360.5 113.5q267 0 410 -141t143 -408q0 -285 -164 -430t-483 -145h-321v225h293q221 0 316 80t95 273q0 159 -74.5 238t-216.5 79q-109 0 -171 -50t-62 -134q0 -126 145 -150v-217q-45 0 -94 9t-106.5 35t-101.5 65t-73.5 106t-29.5 152z M565 561v170h172v-170h-172z" />
<glyph unicode="&#xfb46;" horiz-adv-x="1150" d="M37 1094h311l307 -418q20 11 36 25t27.5 34t19 34t14 41.5t9.5 40t8 46t7 43.5l25 152h282l-32 -174q-16 -84 -34 -141t-49 -111.5t-78.5 -92t-115.5 -63.5l230 -309v-201h-898v227h566zM106 387v170h173v-170h-173z" />
<glyph unicode="&#xfb47;" horiz-adv-x="1257" d="M131 864v230h1040v-224l-307 -872h-284l303 866h-752zM139 -264v827h273v-827h-273zM494 563v170h172v-170h-172z" />
<glyph unicode="&#xfb48;" horiz-adv-x="1028" d="M76 866v228h454q121 0 207.5 -49t128.5 -136q43 -88 43 -243v-666h-272v674q0 192 -176 192h-385zM229 465v170h172v-170h-172z" />
<glyph unicode="&#xfb49;" horiz-adv-x="1546" d="M117 645v449h258v-467q0 -47 10 -105q103 26 156.5 61t77.5 92.5t24 155.5v263h252v-263q0 -103 -24.5 -182.5t-63 -129.5t-99 -85.5t-119 -53.5t-136.5 -32q43 -56 88 -86q91 -67 229 -67q136 0 231 67q162 113 162 365v467h260v-449q0 -369 -229 -545 q-167 -129 -426 -129q-260 0 -426 131q-225 173 -225 543zM866 365v170h172v-170h-172z" />
<glyph unicode="&#xfb4a;" horiz-adv-x="1425" d="M84 866v228h842q123 0 209.5 -49t130.5 -136q41 -80 41 -241v-668h-273v674q0 192 -174 192h-258v-501q0 -88 -20.5 -155.5t-53.5 -109t-80 -68t-95 -36.5t-103 -10q-74 0 -160 22v205q75 -6 76 -6q39 0 66 7.5t50.5 28t34.5 61t11 102.5v460h-244zM729 467v170h172v-170 h-172z" />
<glyph unicode="&#xfb4b;" horiz-adv-x="628" d="M100 866v228h402v-1094h-277v866h-125zM250 1237v170h172v-170h-172z" />
<glyph horiz-adv-x="552" d="M135 1401q0 61 43 103t103 42t101.5 -42t41.5 -103q0 -60 -41.5 -102t-101.5 -42t-103 42t-43 102zM143 0v1071h269v-1071h-269z" />
<glyph horiz-adv-x="1228" d="M20 0l472 1184h245l471 -1184h-266l-94 246h-467l-94 -246h-267zM459 451h311l-156 409z" />
<glyph horiz-adv-x="1093" d="M141 0v1184h488q138 0 235 -96.5t97 -233.5q0 -145 -99 -221q84 -35 132 -106t48 -173q0 -149 -103 -251.5t-251 -102.5h-547zM401 195h236q65 0 110.5 46.5t45.5 112.5q0 65 -46 111.5t-112 46.5h-234v-317zM401 705h172q60 0 102 41.5t42 101.5q0 59 -42 100t-102 41 h-172v-284z" />
<glyph horiz-adv-x="1173" d="M78 592q0 113 34 212.5t94.5 173.5t141.5 127t176.5 80t198.5 27q191 0 338 -86v-237q-60 42 -147.5 71t-168.5 29q-176 0 -294.5 -104.5t-118.5 -292.5t118.5 -292.5t294.5 -104.5q81 0 168.5 29t147.5 71v-240q-149 -84 -338 -84q-129 0 -245.5 43.5t-205.5 121.5 t-141.5 196.5t-52.5 259.5z" />
<glyph horiz-adv-x="1255" d="M133 0v1184h434q174 0 313.5 -75t218.5 -210.5t79 -306.5q0 -259 -173.5 -425.5t-437.5 -166.5h-434zM391 223h158q160 0 266.5 102.5t106.5 266.5q0 165 -105.5 267t-267.5 102h-158v-738z" />
<glyph horiz-adv-x="929" d="M133 0v1184h690v-223h-428v-250h383v-211h-383v-275h428v-225h-690z" />
<glyph horiz-adv-x="921" d="M133 0v1184h690v-223h-428v-250h383v-211h-383v-500h-262z" />
<glyph horiz-adv-x="1468" d="M133 0v1184h690v-223h-424v-250h379v-211h-379v-500h-266zM1053 0v1184h270v-1184h-270z" />
<glyph horiz-adv-x="1777" d="M133 0v1184h690v-223h-424v-250h379v-211h-379v-500h-266zM1047 0v1184h268v-953h411v-231h-679z" />
<glyph horiz-adv-x="1323" d="M78 592q0 144 53.5 263t144.5 195.5t208.5 118t248.5 41.5q230 0 412 -106v-252q-81 67 -184.5 103t-208.5 36q-186 0 -302 -106.5t-116 -292.5q0 -167 102 -277q59 -57 142.5 -88.5t171.5 -31.5q137 0 223 55v192h-199v203h434v-526q-79 -65 -201.5 -106.5t-263.5 -41.5 q-133 0 -252.5 42t-212 119t-146.5 196t-54 264z" />
<glyph horiz-adv-x="1310" d="M143 0v1184h269v-471h487v471h268v-1184h-268v502h-487v-502h-269z" />
<glyph horiz-adv-x="571" d="M150 0v1184h272v-1184h-272z" />
<glyph horiz-adv-x="571" d="M150 0v1184h272v-1184h-272z" />
<glyph horiz-adv-x="679" d="M39 -12v219q42 -10 82 -10q65 0 102 36.5t37 102.5v848h270v-867q0 -156 -96 -250t-258 -94q-69 0 -137 15z" />
<glyph horiz-adv-x="1179" d="M139 0v1184h267l2 -492l415 492h326l-512 -592l512 -592h-326l-417 492v-492h-267z" />
<glyph horiz-adv-x="872" d="M141 0v1184h269v-955h411v-229h-680z" />
<glyph horiz-adv-x="1773" d="M113 0l127 1184h313l334 -813l334 813h313l127 -1184h-258l-84 791l-330 -803h-205l-329 803l-86 -791h-256z" />
<glyph horiz-adv-x="1374" d="M139 0v1184h234l606 -770v770h256v-1184h-231l-609 770v-770h-256z" />
<glyph horiz-adv-x="1404" d="M78 592q0 116 34.5 216t94 172.5t139 124.5t170 77.5t186.5 25.5q120 0 231 -41.5t199.5 -117t141.5 -194.5t53 -263q0 -145 -53 -264.5t-141.5 -196t-199.5 -118.5t-231 -42q-96 0 -186.5 26t-170 78.5t-139 125.5t-94 174t-34.5 217zM336 592q0 -92 32 -168t85 -123 t118 -72.5t134 -25.5q68 0 132.5 25.5t117 72.5t84.5 123t32 168q0 91 -32 165.5t-84.5 121t-117 71.5t-132.5 25q-69 0 -134 -25t-118 -71.5t-85 -121t-32 -165.5z" />
<glyph horiz-adv-x="1044" d="M152 0l2 1184h469q149 0 254.5 -105t105.5 -256q0 -149 -105.5 -254.5t-254.5 -105.5h-209v-463h-262zM412 662h155q68 2 115 48.5t47 112.5t-47 114t-113 48h-157v-323z" />
<glyph horiz-adv-x="1462" d="M78 592q0 116 34.5 216t94 172.5t139 124.5t170 77.5t186.5 25.5q120 0 231 -41.5t199.5 -117t141.5 -194.5t53 -263q0 -195 -92 -340l248 -252h-309l-87 94q-171 -123 -385 -123q-96 0 -186.5 26t-170 78.5t-139 125.5t-94 174t-34.5 217zM334 592q0 -93 32 -169 t85 -123t117.5 -72t133.5 -25t134 25t118 72t85 123t32 169q0 92 -32 167t-85 122t-118 72.5t-134 25.5t-134 -25.5t-117.5 -72.5t-84.5 -122t-32 -167z" />
<glyph horiz-adv-x="1089" d="M152 0l2 1184h469q149 0 254.5 -105t105.5 -256q0 -126 -77 -222t-197 -126l381 -475h-299l-355 465h-22v-465h-262zM412 662h155q68 2 115 48.5t47 112.5t-47 114t-113 48h-157v-323z" />
<glyph horiz-adv-x="1003" d="M88 879q0 140 113 234.5t301 94.5q183 0 352 -94v-221q-188 108 -336 108q-71 0 -117.5 -33.5t-46.5 -97.5q0 -73 50.5 -109.5t181.5 -74.5q55 -16 97.5 -32.5t90.5 -46.5t79 -65.5t52 -90t21 -121.5q0 -154 -118.5 -254.5t-311.5 -100.5q-212 0 -375 97v227 q185 -115 354 -115q85 0 134.5 36t49.5 97q0 29 -9.5 51t-24.5 38t-47 31t-63.5 25.5t-86.5 26.5t-97.5 33.5t-90.5 49t-79 71t-52 100.5t-21 136z" />
<glyph horiz-adv-x="1001" d="M61 961v223h877v-223h-303v-961h-268v961h-306z" />
<glyph horiz-adv-x="1261" d="M137 475v709h266v-756q0 -94 67 -160.5t161 -66.5t160.5 66.5t66.5 160.5v756h266v-709q0 -233 -139 -368.5t-354 -135.5t-354.5 135.5t-139.5 368.5z" />
<glyph horiz-adv-x="1245" d="M29 1184h266l328 -840l327 840h267l-472 -1184h-245z" />
<glyph horiz-adv-x="2031" d="M10 1184h279l307 -785l309 789h230l309 -789l307 785h279l-478 -1186h-215l-317 801l-318 -801h-215z" />
<glyph horiz-adv-x="1196" d="M10 0l436 631l-383 553h306l231 -340l231 340h308l-385 -553l436 -631h-307l-283 414l-281 -414h-309z" />
<glyph horiz-adv-x="1146" d="M0 1184h301l272 -420l271 420h303l-438 -660v-524h-271v524z" />
<glyph horiz-adv-x="1024" d="M90 0v168l508 793h-500v223h836v-168l-508 -793h500v-223h-836z" />
<glyph horiz-adv-x="1167" d="M109 592q0 160 36.5 281t102 194t150 109t186.5 36t186.5 -36t150 -109t102 -194t36.5 -281t-36.5 -281t-102 -194.5t-150 -109.5t-186.5 -36t-186.5 36t-150 109.5t-102 194.5t-36.5 281zM365 592q0 -210 54 -307t165 -97t165 97t54 307t-54 306.5t-165 96.5t-165 -96.5 t-54 -306.5z" />
<glyph horiz-adv-x="786" d="M92 795v174q106 4 182.5 62.5t104.5 152.5h203v-1184h-260v795h-230z" />
<glyph horiz-adv-x="960" d="M82 805q-8 180 102.5 293.5t296.5 113.5q179 0 288.5 -99.5t109.5 -258.5q0 -94 -48.5 -175.5t-156.5 -207.5l-223 -258h403v-213h-743v147l432 529q37 47 51.5 67t28.5 51t14 60q0 65 -44.5 104t-111.5 39q-85 0 -128 -55t-38 -137h-233z" />
<glyph horiz-adv-x="876" d="M82 6v219q89 -30 190 -30q77 0 136.5 19.5t100 69.5t40.5 126t-50 120.5t-124 44.5q-86 0 -166 -57v195l227 264h-348v207h641l-4 -185l-223 -235q127 -22 210 -117.5t83 -232.5q0 -91 -30 -166t-80 -124.5t-116.5 -83t-138 -48.5t-147.5 -15q-103 0 -201 29z" />
<glyph horiz-adv-x="1050" d="M82 236v202l403 746h277l-397 -735h266v161l221 2v-163h117v-213h-117v-236h-221v236h-549z" />
<glyph horiz-adv-x="903" d="M82 14l14 215q90 -34 203 -34q56 0 104 11.5t87.5 35.5t62 67t22.5 101q0 71 -47.5 118t-119.5 47q-82 0 -134 -61l-155 61l41 609h581v-211h-368l-15 -215q43 14 101 14q151 0 256.5 -99.5t105.5 -258.5q0 -91 -30 -166t-80 -124.5t-116.5 -83t-138 -48.5t-147.5 -15 q-129 0 -227 37z" />
<glyph horiz-adv-x="993" d="M82 360q0 128 57 254q15 31 39 72t64 104t70.5 109.5t92.5 140.5t95 144h262l-332 -492q52 21 117 21q67 0 130.5 -22.5t116.5 -65t85 -113t32 -158.5q0 -164 -118.5 -273.5t-298.5 -109.5q-181 0 -296.5 110t-115.5 279zM324 348q0 -79 48.5 -128.5t127.5 -49.5 q81 0 128.5 49.5t47.5 128.5q0 80 -47.5 130t-128.5 50q-79 0 -127.5 -50t-48.5 -130z" />
<glyph horiz-adv-x="894" d="M72 973v211h745v-193q-201 -223 -293 -450q-93 -231 -90 -541h-239q-3 327 98 590q81 212 227 383h-448z" />
<glyph horiz-adv-x="995" d="M82 336q0 93 40.5 167.5t117.5 119.5q-61 47 -93 113t-32 141q0 149 105 242t274 93q172 0 279.5 -96.5t107.5 -241.5q0 -159 -127 -251q159 -101 159 -285q0 -164 -115 -264.5t-304 -100.5q-181 0 -296.5 101.5t-115.5 261.5zM322 344q0 -74 49 -122t125 -48 q78 0 127 48t49 122q0 73 -50.5 122.5t-125.5 49.5q-74 0 -124 -49.5t-50 -122.5zM348 864q0 -69 41 -111t109 -42q67 0 108 42t41 111q0 66 -41 106t-108 40q-68 0 -109 -40t-41 -106z" />
<glyph horiz-adv-x="993" d="M82 829q0 164 118.5 273.5t299.5 109.5t296 -110t115 -279q0 -128 -57 -254q-15 -31 -38.5 -71.5t-64.5 -104.5t-70 -108.5t-92.5 -141t-94.5 -143.5h-263l332 492q-52 -21 -117 -21q-53 0 -104.5 13.5t-98.5 42.5t-83 70.5t-57 101t-21 130.5zM317 836q0 -80 48 -130.5 t129 -50.5q79 0 127.5 50.5t48.5 130.5q0 79 -48.5 128.5t-127.5 49.5q-81 0 -129 -49.5t-48 -128.5z" />
<glyph horiz-adv-x="970" d="M61 0l633 1184h215l-633 -1184h-215z" />
<glyph horiz-adv-x="1382" d="M160 336q0 201 188 323q-57 79 -79.5 138.5t-22.5 120.5q0 132 102.5 219.5t257.5 87.5q148 0 242 -79.5t94 -201.5q0 -119 -88 -207q-41 -49 -158 -119l211 -231l320 264v-280l-172 -142l209 -229h-285l-88 92q-137 -117 -320 -117q-61 0 -120 14.5t-111.5 44.5 t-92.5 72t-63.5 101.5t-23.5 128.5zM389 348q0 -74 54.5 -119t127.5 -45q91 0 170 68l-245 258q-54 -34 -80.5 -70.5t-26.5 -91.5zM473 922q0 -74 82 -156q90 48 128 84.5t38 77.5q0 44 -33.5 73t-89.5 29q-53 0 -89 -31.5t-36 -76.5z" />
</font>
</defs>
</svg>
